<svg width="85" height="55" viewBox="0 0 85 55" version="1.1" xmlns="http://www.w3.org/2000/svg" xmlns:xlink="http://www.w3.org/1999/xlink">
<title>Front</title>
<desc>Created using Figma</desc>
<g id="Canvas">
<clipPath id="clip-0" clip-rule="evenodd">
<path d="M 0 -5.68434e-14L 85 -5.68434e-14L 85 55L 0 55L 0 -5.68434e-14Z" fill="#FFFFFF"/>
</clipPath>
<g id="Front" clip-path="url(#clip-0)">
<clipPath id="clip-1" clip-rule="evenodd">
<path d="M 5 5L 80 5L 80 50L 5 50L 5 5Z" fill="#FFFFFF"/>
</clipPath>
<g id="Safe Print Area" clip-path="url(#clip-1)">
<g id="Logo Red Dark Background">
<g id="Canvas">
<mask id="mask0_alpha" mask-type="alpha">
<g id="mask0_alpha">
<g id="Vector">
<use xlink:href="#path0_fill" transform="translate(28 6)" fill="#FFFFFF"/>
</g>
</g>
</mask>
<g id="Logo Red Dark Background" mask="url(#mask0_alpha)">
<g id="Dots">
<g id="Vector">
<g id="Vector">
<use xlink:href="#path1_fill" transform="translate(38.8333 31.8334)" fill="#FFFFFF"/>
</g>
</g>
<g id="Vector">
<g id="Vector">
<use xlink:href="#path1_fill" transform="translate(45.5 31.8333)" fill="#FFFFFF"/>
</g>
</g>
<g id="Vector">
<g id="Vector">
<use xlink:href="#path1_fill" transform="translate(42.1667 31.8333)" fill="#FFFFFF"/>
</g>
</g>
</g>
<g id="Braces">
<g id="Vector">
<g id="Vector">
<use xlink:href="#path2_fill" transform="translate(50.5 8.5)" fill="#FFFFFF"/>
</g>
</g>
<g id="Vector">
<g id="Vector">
<use xlink:href="#path3_fill" transform="translate(30.5 8.5)" fill="#FFFFFF"/>
</g>
</g>
</g>
<g id="Bulb">
<g id="Vector">
<g id="Vector">
<use xlink:href="#path4_fill" transform="translate(42.1663 27.9861)" fill="#9C173F"/>
</g>
</g>
<g id="Vector">
<g id="Vector">
<use xlink:href="#path5_fill" transform="translate(40.4996 25.5958)" fill="#C70644"/>
</g>
</g>
<g id="Vector">
<g id="Vector">
<use xlink:href="#path6_fill" transform="translate(38.8329 22.9389)" fill="#FF0055"/>
</g>
</g>
<g id="Vector">
<g id="Vector">
<use xlink:href="#path7_fill" transform="translate(37.1667 12.455)" fill="#FF0055"/>
</g>
</g>
</g>
</g>
</g>
</g>
<g id="Heinrich Reimer Software Android development with love.">
<use xlink:href="#path8_fill" transform="translate(5 37)" fill="#FFFFFF"/>
<use xlink:href="#path9_fill" transform="translate(5 37)" fill="#FFFFFF" fill-opacity="0.8"/>
</g>
</g>
</g>
</g>
<defs>
<path id="path0_fill" d="M 0 0L 30 0L 30 30L 0 30L 0 0Z"/>
<path id="path1_fill" d="M 0.833333 1.66667C 1.29357 1.66667 1.66667 1.29357 1.66667 0.833333C 1.66667 0.373096 1.29357 0 0.833333 0C 0.373096 0 0 0.373096 0 0.833333C 0 1.29357 0.373096 1.66667 0.833333 1.66667Z"/>
<path id="path2_fill" d="M 3.33333 6.94444L 3.33333 2.5C 3.33333 1.83696 3.06994 1.20107 2.6011 0.732233C 2.13226 0.263392 1.49638 9.86871e-16 0.833333 -1.40695e-23L 0 -1.40695e-23L 0 1.66667L 0.833333 1.66667C 1.05435 1.66667 1.26631 1.75446 1.42258 1.91075C 1.57888 2.06703 1.66667 2.27899 1.66667 2.5L 1.66667 6.94444C 1.66667 8.11389 1.66667 11.0528 3.02083 12.5C 1.66667 13.9472 1.66667 16.8861 1.66667 18.0556L 1.66667 22.5C 1.66667 22.721 1.57888 22.9329 1.42258 23.0893C 1.26631 23.2456 1.05435 23.3333 0.833333 23.3333L 0 23.3333L 0 25L 0.833333 25C 1.49638 25 2.13226 24.7367 2.6011 24.2678C 3.06994 23.7989 3.33333 23.1631 3.33333 22.5L 3.33333 18.0556C 3.33333 14.9222 3.88889 13.3333 5 13.3333L 5 11.6667C 3.88889 11.6667 3.33333 10.0778 3.33333 6.94444Z"/>
<path id="path3_fill" d="M 1.66667 6.94444L 1.66667 2.5C 1.66667 1.83696 1.93006 1.20107 2.3989 0.732233C 2.86774 0.263392 3.50363 1.97373e-15 4.16667 -1.40695e-23L 5 -1.40695e-23L 5 1.66667L 4.16667 1.66667C 3.94565 1.66667 3.73369 1.75446 3.57742 1.91075C 3.42113 2.06703 3.33333 2.27899 3.33333 2.5L 3.33333 6.94444C 3.33333 8.11389 3.33333 11.0528 1.97917 12.5C 3.33333 13.9472 3.33333 16.8861 3.33333 18.0556L 3.33333 22.5C 3.33333 22.721 3.42113 22.9329 3.57742 23.0893C 3.73369 23.2456 3.94565 23.3333 4.16667 23.3333L 5 23.3333L 5 25L 4.16667 25C 3.50363 25 2.86774 24.7367 2.3989 24.2678C 1.93006 23.7989 1.66667 23.1631 1.66667 22.5L 1.66667 18.0556C 1.66667 14.9222 1.11111 13.3333 0 13.3333L 0 11.6667C 1.11111 11.6667 1.66667 10.0778 1.66667 6.94444Z"/>
<path id="path4_fill" d="M 0.000465475 0.447222L 0.000465475 1.28056C -0.0017987 1.31392 0.00422174 1.34732 0.0179908 1.37779C 0.0317599 1.40826 0.0528506 1.43485 0.0793842 1.45519C 0.105918 1.47554 0.137071 1.48901 0.170069 1.4944C 0.203069 1.49981 0.23689 1.49696 0.268521 1.48611L 1.39908 1.18333C 1.47435 1.15967 1.54047 1.11336 1.58846 1.05072C 1.63643 0.988083 1.6639 0.912166 1.66714 0.833333L 1.66714 -1.32864e-14L 0.000465475 0.447222Z"/>
<path id="path5_fill" d="M 0.000465475 1.34028L 0.000465475 2.45139C -0.0017987 2.48475 0.00422174 2.51815 0.0179908 2.54863C 0.0317599 2.5791 0.0528506 2.60568 0.0793842 2.62603C 0.105918 2.64638 0.137071 2.65985 0.170069 2.66524C 0.203069 2.67064 0.23689 2.66779 0.268521 2.65694L 4.73242 1.46111C 4.80768 1.43745 4.87381 1.39114 4.92179 1.3285C 4.96976 1.26586 4.99724 1.18995 5.00047 1.11111L 5.00047 3.43521e-15L 0.000465475 1.34028Z"/>
<path id="path6_fill" d="M 0.000465475 2.22778L 0.000465475 3.61667C -0.0017987 3.65003 0.00422174 3.68343 0.0179908 3.7139C 0.0317599 3.74437 0.0528506 3.77096 0.0793842 3.7913C 0.105918 3.81165 0.137071 3.82512 0.170069 3.83053C 0.203069 3.83592 0.23689 3.83305 0.268521 3.82222L 8.06575 1.73889C 8.14101 1.71522 8.20714 1.66892 8.25513 1.60628C 8.3031 1.54364 8.33057 1.46772 8.33381 1.38889L 8.33381 -1.67216e-14L 0.000465475 2.22778Z"/>
<path id="path7_fill" d="M 11.6667 5.83388C 11.6667 4.87707 11.4315 3.93493 10.9816 3.0905C 10.5317 2.24607 9.88101 1.52526 9.08686 0.991604C 8.29271 0.45795 7.37947 0.127836 6.42765 0.0303553C 5.47582 -0.0671258 4.51464 0.0710198 3.62879 0.432617C 2.74294 0.794212 1.95965 1.36816 1.34793 2.10387C 0.73621 2.83958 0.314851 3.71446 0.120991 4.65142C -0.0728704 5.58838 -0.0332823 6.55864 0.236265 7.47668C 0.505814 8.39474 0.997044 9.23239 1.66667 9.91582L 1.66667 12.1561L 3.33333 11.7089L 3.33333 9.16443C 2.63372 8.63972 2.11694 7.9082 1.85619 7.07346C 1.59544 6.23872 1.60394 5.34311 1.88049 4.51349C 2.15703 3.68385 2.6876 2.96225 3.39704 2.45092C 4.10649 1.93958 4.95882 1.66443 5.83333 1.66443C 6.70785 1.66443 7.56018 1.93958 8.26962 2.45092C 8.97907 2.96225 9.50964 3.68385 9.78618 4.51349C 10.0627 5.34311 10.0712 6.23872 9.81047 7.07346C 9.54972 7.9082 9.03294 8.63972 8.33333 9.16443L 8.33333 10.363L 10 9.91721C 11.0703 8.82782 11.669 7.36106 11.6667 5.83388Z"/>
<path id="path8_fill" d="M 3.54878 2.1741L 4.48073 2.1741L 4.48073 6L 3.54878 6L 3.54878 4.41405L 2.07183 4.41405L 2.07183 6L 1.13988 6L 1.13988 2.1741L 2.07183 2.1741L 2.07183 3.70555L 3.54878 3.70555L 3.54878 2.1741ZM 6.58822 6.03815C 6.14495 6.03815 5.78162 5.89645 5.49822 5.61305C 5.21482 5.32602 5.07312 4.94633 5.07312 4.474C 5.07312 4.00167 5.213 3.62562 5.49277 3.34585C 5.77617 3.06608 6.14132 2.9262 6.58822 2.9262C 7.03512 2.9262 7.40572 3.06427 7.70002 3.3404C 7.99432 3.61653 8.14147 3.99985 8.14147 4.49035C 8.14147 4.59572 8.1342 4.69382 8.11967 4.78465L 6.02687 4.78465C 6.04503 4.91908 6.10498 5.0299 6.20672 5.1171C 6.30845 5.20067 6.41745 5.24245 6.53372 5.24245C 6.65362 5.24245 6.74263 5.23155 6.80077 5.20975C 6.8589 5.18432 6.90068 5.1607 6.92612 5.1389C 6.95518 5.11347 6.99152 5.0735 7.03512 5.019L 8.04337 5.019C 7.95617 5.3242 7.78177 5.57127 7.52017 5.7602C 7.25857 5.9455 6.94792 6.03815 6.58822 6.03815ZM 7.17137 4.2015C 7.15683 4.0598 7.09507 3.94535 6.98607 3.85815C 6.87707 3.76732 6.74808 3.7219 6.59912 3.7219C 6.45015 3.7219 6.3248 3.76732 6.22307 3.85815C 6.12133 3.94535 6.05775 4.0598 6.03232 4.2015L 7.17137 4.2015ZM 9.59027 2.61555C 9.48491 2.72092 9.35592 2.7736 9.20332 2.7736C 9.05072 2.7736 8.92174 2.72092 8.81637 2.61555C 8.71101 2.51018 8.65832 2.3812 8.65832 2.2286C 8.65832 2.07237 8.71101 1.94157 8.81637 1.8362C 8.92174 1.73083 9.05072 1.67815 9.20332 1.67815C 9.35592 1.67815 9.48491 1.73083 9.59027 1.8362C 9.69564 1.94157 9.74832 2.07237 9.74832 2.2286C 9.74832 2.3812 9.69564 2.51018 9.59027 2.61555ZM 8.74007 6L 8.74007 2.9589L 9.67202 2.9589L 9.67202 6L 8.74007 6ZM 11.423 2.9589L 11.423 3.4058C 11.6156 3.08607 11.9226 2.9262 12.3441 2.9262C 12.6929 2.9262 12.9745 3.04247 13.1888 3.275C 13.4068 3.50753 13.5158 3.82363 13.5158 4.2233L 13.5158 6L 12.5893 6L 12.5893 4.34865C 12.5893 4.15245 12.5367 4.00167 12.4313 3.8963C 12.3296 3.7873 12.1879 3.7328 12.0062 3.7328C 11.8245 3.7328 11.681 3.7873 11.5756 3.8963C 11.4739 4.00167 11.423 4.15245 11.423 4.34865L 11.423 6L 10.4911 6L 10.4911 2.9589L 11.423 2.9589ZM 15.2391 2.9589L 15.2391 3.5257C 15.4571 3.12603 15.7478 2.9262 16.1111 2.9262L 16.1111 3.8745L 15.8822 3.8745C 15.6678 3.8745 15.5062 3.92537 15.3972 4.0271C 15.2918 4.12883 15.2391 4.30687 15.2391 4.5612L 15.2391 6L 14.3072 6L 14.3072 2.9589L 15.2391 2.9589ZM 17.4672 2.61555C 17.3619 2.72092 17.2329 2.7736 17.0803 2.7736C 16.9277 2.7736 16.7987 2.72092 16.6933 2.61555C 16.588 2.51018 16.5353 2.3812 16.5353 2.2286C 16.5353 2.07237 16.588 1.94157 16.6933 1.8362C 16.7987 1.73083 16.9277 1.67815 17.0803 1.67815C 17.2329 1.67815 17.3619 1.73083 17.4672 1.8362C 17.5726 1.94157 17.6253 2.07237 17.6253 2.2286C 17.6253 2.3812 17.5726 2.51018 17.4672 2.61555ZM 16.617 6L 16.617 2.9589L 17.549 2.9589L 17.549 6L 16.617 6ZM 18.5643 5.61305C 18.2845 5.32965 18.1446 4.95178 18.1446 4.47945C 18.1446 4.00712 18.2845 3.63107 18.5643 3.3513C 18.8477 3.0679 19.2128 2.9262 19.6597 2.9262C 20.0303 2.9262 20.3446 3.01885 20.6026 3.20415C 20.8605 3.38582 21.0313 3.64742 21.1149 3.98895L 20.1066 3.98895C 20.0194 3.80728 19.8759 3.71645 19.6761 3.71645C 19.4799 3.71645 19.3327 3.7873 19.2346 3.929C 19.1401 4.06707 19.0929 4.25055 19.0929 4.47945C 19.0929 4.70835 19.1401 4.89365 19.2346 5.03535C 19.3327 5.17342 19.4744 5.24245 19.6597 5.24245C 19.776 5.24245 19.8668 5.22247 19.9322 5.1825C 19.9976 5.14253 20.0557 5.07168 20.1066 4.96995L 21.1149 4.96995C 21.0313 5.29695 20.8587 5.55673 20.5971 5.7493C 20.3355 5.94187 20.023 6.03815 19.6597 6.03815C 19.2128 6.03815 18.8477 5.89645 18.5643 5.61305ZM 22.5679 1.967L 22.5679 3.4058C 22.7604 3.08607 23.0675 2.9262 23.4889 2.9262C 23.8377 2.9262 24.1193 3.04247 24.3337 3.275C 24.5517 3.50753 24.6607 3.82363 24.6607 4.2233L 24.6607 6L 23.7342 6L 23.7342 4.34865C 23.7342 4.15245 23.6815 4.00167 23.5761 3.8963C 23.4744 3.7873 23.3327 3.7328 23.151 3.7328C 22.9694 3.7328 22.8258 3.7873 22.7205 3.8963C 22.6187 4.00167 22.5679 4.15245 22.5679 4.34865L 22.5679 6L 21.6359 6L 21.6359 1.967L 22.5679 1.967ZM 28.0179 4.51215L 28.0179 6L 27.0859 6L 27.0859 2.1741L 28.5956 2.1741C 29.0388 2.1741 29.384 2.28855 29.6311 2.51745C 29.8781 2.74635 30.0017 3.02248 30.0017 3.34585C 30.0017 3.56748 29.9345 3.78367 29.8 3.9944C 29.6656 4.20513 29.4458 4.3541 29.1406 4.4413L 30.078 6L 28.988 6L 28.1269 4.51215L 28.0179 4.51215ZM 28.0179 2.8826L 28.0179 3.80365L 28.5956 3.80365C 28.7373 3.80365 28.8481 3.76187 28.928 3.6783C 29.0116 3.59473 29.0534 3.48573 29.0534 3.3513C 29.0534 3.21323 29.0116 3.1006 28.928 3.0134C 28.8445 2.9262 28.7336 2.8826 28.5956 2.8826L 28.0179 2.8826ZM 32.018 6.03815C 31.5747 6.03815 31.2114 5.89645 30.928 5.61305C 30.6446 5.32602 30.5029 4.94633 30.5029 4.474C 30.5029 4.00167 30.6428 3.62562 30.9226 3.34585C 31.206 3.06608 31.5711 2.9262 32.018 2.9262C 32.4649 2.9262 32.8355 3.06427 33.1298 3.3404C 33.4241 3.61653 33.5713 3.99985 33.5713 4.49035C 33.5713 4.59572 33.564 4.69382 33.5495 4.78465L 31.4567 4.78465C 31.4748 4.91908 31.5348 5.0299 31.6365 5.1171C 31.7382 5.20067 31.8472 5.24245 31.9635 5.24245C 32.0834 5.24245 32.1724 5.23155 32.2306 5.20975C 32.2887 5.18432 32.3305 5.1607 32.3559 5.1389C 32.385 5.11347 32.4213 5.0735 32.4649 5.019L 33.4732 5.019C 33.386 5.3242 33.2116 5.57127 32.95 5.7602C 32.6884 5.9455 32.3777 6.03815 32.018 6.03815ZM 32.6012 4.2015C 32.5866 4.0598 32.5249 3.94535 32.4159 3.85815C 32.3069 3.76732 32.1779 3.7219 32.0289 3.7219C 31.8799 3.7219 31.7546 3.76732 31.6529 3.85815C 31.5511 3.94535 31.4875 4.0598 31.4621 4.2015L 32.6012 4.2015ZM 35.0201 2.61555C 34.9147 2.72092 34.7857 2.7736 34.6331 2.7736C 34.4805 2.7736 34.3515 2.72092 34.2462 2.61555C 34.1408 2.51018 34.0881 2.3812 34.0881 2.2286C 34.0881 2.07237 34.1408 1.94157 34.2462 1.8362C 34.3515 1.73083 34.4805 1.67815 34.6331 1.67815C 34.7857 1.67815 34.9147 1.73083 35.0201 1.8362C 35.1254 1.94157 35.1781 2.07237 35.1781 2.2286C 35.1781 2.3812 35.1254 2.51018 35.0201 2.61555ZM 34.1699 6L 34.1699 2.9589L 35.1018 2.9589L 35.1018 6L 34.1699 6ZM 36.8528 2.9589L 36.8528 3.4058C 37.0454 3.08607 37.3524 2.9262 37.7739 2.9262C 37.9992 2.9262 38.199 2.97707 38.3734 3.0788C 38.5514 3.18053 38.6895 3.32587 38.7876 3.5148C 38.9002 3.33677 39.0456 3.19507 39.2236 3.0897C 39.4053 2.9807 39.6069 2.9262 39.8285 2.9262C 40.1991 2.9262 40.4934 3.04065 40.7114 3.26955C 40.9294 3.49845 41.0384 3.81637 41.0384 4.2233L 41.0384 6L 40.1119 6L 40.1119 4.34865C 40.1119 4.15245 40.0593 4.00167 39.9539 3.8963C 39.8522 3.7873 39.7105 3.7328 39.5288 3.7328C 39.3471 3.7328 39.2036 3.7873 39.0982 3.8963C 38.9965 4.00167 38.9456 4.15245 38.9456 4.34865L 38.9456 6L 38.0191 6L 38.0191 4.34865C 38.0191 4.15245 37.9665 4.00167 37.8611 3.8963C 37.7594 3.7873 37.6177 3.7328 37.436 3.7328C 37.2543 3.7328 37.1108 3.7873 37.0054 3.8963C 36.9037 4.00167 36.8528 4.15245 36.8528 4.34865L 36.8528 6L 35.9209 6L 35.9209 2.9589L 36.8528 2.9589ZM 43.1202 6.03815C 42.677 6.03815 42.3136 5.89645 42.0302 5.61305C 41.7468 5.32602 41.6051 4.94633 41.6051 4.474C 41.6051 4.00167 41.745 3.62562 42.0248 3.34585C 42.3082 3.06608 42.6733 2.9262 43.1202 2.9262C 43.5671 2.9262 43.9377 3.06427 44.232 3.3404C 44.5263 3.61653 44.6735 3.99985 44.6735 4.49035C 44.6735 4.59572 44.6662 4.69382 44.6517 4.78465L 42.5589 4.78465C 42.5771 4.91908 42.637 5.0299 42.7387 5.1171C 42.8405 5.20067 42.9495 5.24245 43.0657 5.24245C 43.1856 5.24245 43.2747 5.23155 43.3328 5.20975C 43.3909 5.18432 43.4327 5.1607 43.4581 5.1389C 43.4872 5.11347 43.5235 5.0735 43.5671 5.019L 44.5754 5.019C 44.4882 5.3242 44.3138 5.57127 44.0522 5.7602C 43.7906 5.9455 43.4799 6.03815 43.1202 6.03815ZM 43.7034 4.2015C 43.6889 4.0598 43.6271 3.94535 43.5181 3.85815C 43.4091 3.76732 43.2801 3.7219 43.1311 3.7219C 42.9822 3.7219 42.8568 3.76732 42.7551 3.85815C 42.6534 3.94535 42.5898 4.0598 42.5643 4.2015L 43.7034 4.2015ZM 46.2041 2.9589L 46.2041 3.5257C 46.4221 3.12603 46.7127 2.9262 47.0761 2.9262L 47.0761 3.8745L 46.8472 3.8745C 46.6328 3.8745 46.4711 3.92537 46.3621 4.0271C 46.2567 4.12883 46.2041 4.30687 46.2041 4.5612L 46.2041 6L 45.2721 6L 45.2721 2.9589L 46.2041 2.9589ZM 50.513 2.85535C 50.3967 2.85535 50.3005 2.88623 50.2242 2.948C 50.1515 3.00977 50.1152 3.09878 50.1152 3.21505C 50.1152 3.33132 50.1497 3.42578 50.2187 3.49845C 50.2877 3.56748 50.3768 3.62198 50.4858 3.66195C 50.5984 3.69828 50.7219 3.73462 50.8564 3.77095C 50.9944 3.80365 51.1307 3.84543 51.2651 3.8963C 51.3995 3.94353 51.5213 4.00348 51.6303 4.07615C 51.7429 4.14882 51.8337 4.25237 51.9028 4.3868C 51.9718 4.5176 52.0063 4.67565 52.0063 4.86095C 52.0063 5.18432 51.8737 5.46227 51.6085 5.6948C 51.3469 5.9237 50.9999 6.03815 50.5675 6.03815C 50.1388 6.03815 49.7918 5.9346 49.5266 5.7275C 49.265 5.5204 49.1342 5.2261 49.1342 4.8446L 50.1261 4.8446C 50.1515 5.1498 50.3077 5.3024 50.5948 5.3024C 50.7292 5.3024 50.8346 5.26788 50.9109 5.19885C 50.9872 5.12618 51.0253 5.03535 51.0253 4.92635C 51.0253 4.81735 50.9908 4.72833 50.9218 4.6593C 50.8527 4.59027 50.7619 4.53577 50.6493 4.4958C 50.5403 4.45583 50.4167 4.4195 50.2787 4.3868C 50.1442 4.35047 50.0098 4.30687 49.8754 4.256C 49.7409 4.20513 49.6174 4.14518 49.5048 4.07615C 49.3958 4.00348 49.3067 3.90175 49.2377 3.77095C 49.1687 3.63652 49.1342 3.47847 49.1342 3.2968C 49.1342 2.94073 49.2668 2.65552 49.532 2.44115C 49.7972 2.22678 50.1351 2.1196 50.5457 2.1196C 50.9599 2.1196 51.2942 2.21407 51.5485 2.403C 51.8028 2.5883 51.9355 2.8826 51.9464 3.2859L 50.9327 3.2859C 50.9181 3.14783 50.8727 3.04247 50.7964 2.9698C 50.7237 2.8935 50.6293 2.85535 50.513 2.85535ZM 54.5703 5.04625C 54.6938 4.91545 54.7556 4.72652 54.7556 4.47945C 54.7556 4.23238 54.692 4.04527 54.5649 3.9181C 54.4377 3.7873 54.2869 3.7219 54.1125 3.7219C 53.9381 3.7219 53.7873 3.7873 53.6602 3.9181C 53.5366 4.04527 53.4749 4.23238 53.4749 4.47945C 53.4749 4.72652 53.5384 4.91545 53.6656 5.04625C 53.7964 5.17705 53.949 5.24245 54.1234 5.24245C 54.2978 5.24245 54.4468 5.17705 54.5703 5.04625ZM 52.9844 5.6076C 52.6792 5.32057 52.5266 4.9427 52.5266 4.474C 52.5266 4.0053 52.6792 3.63107 52.9844 3.3513C 53.2896 3.0679 53.6674 2.9262 54.118 2.9262C 54.5685 2.9262 54.9445 3.0679 55.2461 3.3513C 55.5513 3.63107 55.7039 4.0053 55.7039 4.474C 55.7039 4.9427 55.5531 5.32057 55.2516 5.6076C 54.95 5.89463 54.5739 6.03815 54.1234 6.03815C 53.6729 6.03815 53.2932 5.89463 52.9844 5.6076ZM 57.635 2.9589L 57.635 3.7328L 57.248 3.7328L 57.248 6L 56.3161 6L 56.3161 3.7328L 56.0327 3.7328L 56.0327 2.9589L 56.3161 2.9589L 56.3161 2.84445C 56.3161 2.45932 56.4178 2.17773 56.6213 1.9997C 56.8284 1.82167 57.1517 1.73265 57.5914 1.73265L 57.5914 2.5229C 57.4678 2.5229 57.3788 2.54652 57.3243 2.59375C 57.2734 2.64098 57.248 2.72455 57.248 2.84445L 57.248 2.9589L 57.635 2.9589ZM 59.4277 5.20975L 59.7601 5.20975L 59.7601 6L 59.286 6C 58.9444 6 58.6792 5.92552 58.4903 5.77655C 58.305 5.62395 58.2123 5.36417 58.2123 4.9972L 58.2123 3.7328L 57.9289 3.7328L 57.9289 2.9589L 58.2123 2.9589L 58.2123 2.2177L 59.1443 2.2177L 59.1443 2.9589L 59.7547 2.9589L 59.7547 3.7328L 59.1443 3.7328L 59.1443 4.9972C 59.1443 5.1389 59.2387 5.20975 59.4277 5.20975ZM 63.8151 2.9589L 64.6926 2.9589L 63.7824 6L 62.7796 6L 62.3545 4.2015L 61.924 6L 60.9212 6L 60.011 2.9589L 60.943 2.9589L 61.4171 5.0953L 61.8858 2.9589L 62.8723 2.9589L 63.341 5.0953L 63.8151 2.9589ZM 66.9718 5.03535C 67.1063 4.90455 67.1735 4.71925 67.1735 4.47945C 67.1735 4.23965 67.1063 4.05617 66.9718 3.929C 66.8374 3.7982 66.683 3.7328 66.5086 3.7328C 66.3342 3.7328 66.1798 3.7982 66.0453 3.929C 65.9109 4.0598 65.8437 4.2451 65.8437 4.4849C 65.8437 4.7247 65.9109 4.91 66.0453 5.0408C 66.1798 5.16797 66.3342 5.23155 66.5086 5.23155C 66.683 5.23155 66.8374 5.16615 66.9718 5.03535ZM 65.2987 5.60215C 65.0298 5.31148 64.8954 4.93907 64.8954 4.4849C 64.8954 4.03073 65.0298 3.65832 65.2987 3.36765C 65.5675 3.07335 65.8945 2.9262 66.2797 2.9262C 66.6684 2.9262 66.9664 3.06972 67.1735 3.35675L 67.1735 2.9589L 68.1054 2.9589L 68.1054 6L 67.1735 6L 67.1735 5.55855C 66.9482 5.87828 66.6466 6.03815 66.2688 6.03815C 65.8909 6.03815 65.5675 5.89282 65.2987 5.60215ZM 69.8562 2.9589L 69.8562 3.5257C 70.0742 3.12603 70.3649 2.9262 70.7282 2.9262L 70.7282 3.8745L 70.4993 3.8745C 70.2849 3.8745 70.1233 3.92537 70.0143 4.0271C 69.9089 4.12883 69.8562 4.30687 69.8562 4.5612L 69.8562 6L 68.9243 6L 68.9243 2.9589L 69.8562 2.9589ZM 72.5258 6.03815C 72.0825 6.03815 71.7192 5.89645 71.4358 5.61305C 71.1524 5.32602 71.0107 4.94633 71.0107 4.474C 71.0107 4.00167 71.1505 3.62562 71.4303 3.34585C 71.7137 3.06608 72.0789 2.9262 72.5258 2.9262C 72.9727 2.9262 73.3433 3.06427 73.6376 3.3404C 73.9319 3.61653 74.079 3.99985 74.079 4.49035C 74.079 4.59572 74.0717 4.69382 74.0572 4.78465L 71.9644 4.78465C 71.9826 4.91908 72.0425 5.0299 72.1443 5.1171C 72.246 5.20067 72.355 5.24245 72.4713 5.24245C 72.5912 5.24245 72.6802 5.23155 72.7383 5.20975C 72.7964 5.18432 72.8382 5.1607 72.8637 5.1389C 72.8927 5.11347 72.9291 5.0735 72.9727 5.019L 73.9809 5.019C 73.8937 5.3242 73.7193 5.57127 73.4577 5.7602C 73.1961 5.9455 72.8855 6.03815 72.5258 6.03815ZM 73.1089 4.2015C 73.0944 4.0598 73.0326 3.94535 72.9236 3.85815C 72.8146 3.76732 72.6856 3.7219 72.5367 3.7219C 72.3877 3.7219 72.2623 3.76732 72.1606 3.85815C 72.0589 3.94535 71.9953 4.0598 71.9699 4.2015L 73.1089 4.2015Z"/>
<path id="path9_fill" d="M 15.0902 12L 15.0902 11.7337L 15.3742 11.6592L 15.2464 11.2261L 14.5506 11.2261L 14.4157 11.6734L 14.7281 11.7302L 14.7281 12L 13.8796 12L 13.8335 11.7231L 14.0287 11.6592L 14.7316 9.5505L 15.1718 9.5505L 15.8854 11.6592L 16.0487 11.7231L 16.0132 12L 15.0902 12ZM 14.6606 10.8533L 15.0902 10.8533L 14.902 10.0546L 14.6606 10.8533ZM 16.1484 10.3457L 16.6738 10.2534L 16.7981 10.3847C 16.843 10.3516 16.9034 10.322 16.9791 10.296C 17.0549 10.27 17.1306 10.257 17.2063 10.257C 17.2821 10.257 17.3531 10.2664 17.4193 10.2853C 17.4856 10.3043 17.5436 10.3327 17.5933 10.3706C 17.7021 10.4534 17.7566 10.5717 17.7566 10.7256L 17.7566 11.7409L 17.9518 11.7728L 17.9483 12L 17.1495 12L 17.1495 11.7728L 17.327 11.7337L 17.327 10.825C 17.327 10.6782 17.2537 10.6048 17.1069 10.6048C 17.0099 10.6048 16.92 10.6368 16.8371 10.7007C 16.8182 10.7149 16.8052 10.7267 16.7981 10.7362L 16.7981 11.7337L 17.0004 11.7763L 16.9969 12L 16.2088 12L 16.1697 11.7728L 16.3685 11.7267L 16.3685 10.5871L 16.1875 10.5871L 16.1484 10.3457ZM 18.8847 10.257C 18.9699 10.257 19.0504 10.2723 19.1261 10.3031L 19.1261 9.6996L 18.9451 9.6996L 18.906 9.4582L 19.4314 9.38365L 19.5557 9.515L 19.5557 11.6273C 19.5557 11.6793 19.5781 11.7054 19.6231 11.7054C 19.6468 11.7054 19.6728 11.6983 19.7012 11.684L 19.7687 11.8687C 19.7284 11.9231 19.6622 11.9657 19.5699 11.9964C 19.5344 12.0083 19.4953 12.0142 19.4527 12.0142C 19.3202 12.0142 19.2267 11.9645 19.1723 11.8651C 19.0871 11.9645 18.9616 12.0142 18.796 12.0142C 18.5948 12.0142 18.4327 11.9396 18.3096 11.7906C 18.1842 11.6367 18.1215 11.4296 18.1215 11.1693C 18.1215 10.8474 18.2078 10.606 18.3806 10.4451C 18.5155 10.3197 18.6835 10.257 18.8847 10.257ZM 19.1261 10.6581C 19.074 10.6108 19.0042 10.5871 18.9167 10.5871C 18.7557 10.5871 18.648 10.6853 18.5936 10.8818C 18.5723 10.9575 18.5617 11.0675 18.5617 11.2119C 18.5617 11.3539 18.5889 11.4675 18.6433 11.5527C 18.7001 11.6355 18.7782 11.677 18.8776 11.677C 18.9273 11.677 18.9782 11.6604 19.0303 11.6273C 19.0823 11.5941 19.1143 11.5527 19.1261 11.503L 19.1261 10.6581ZM 21.01 11.7728L 21.0135 12L 19.9911 12L 19.9379 11.7728L 20.1509 11.716L 20.1509 10.5765L 19.9698 10.5906L 19.9308 10.3493C 19.9616 10.3445 20.0006 10.3374 20.0479 10.328C 20.0976 10.3185 20.1473 10.309 20.197 10.2996C 20.3296 10.2735 20.4053 10.2593 20.4242 10.257L 20.5449 10.4415C 20.5923 10.3824 20.6491 10.3374 20.7153 10.3067C 20.7816 10.2735 20.8562 10.257 20.939 10.257C 21.0218 10.257 21.1047 10.2818 21.1875 10.3315C 21.2727 10.3788 21.3319 10.4569 21.365 10.5658L 20.9354 10.7895L 20.8289 10.612C 20.7698 10.612 20.7177 10.6392 20.6727 10.6936C 20.6112 10.767 20.5804 10.864 20.5804 10.9847L 20.5804 11.6486C 20.5804 11.6509 20.5982 11.658 20.6337 11.6698C 20.6716 11.6793 20.7153 11.6912 20.765 11.7054C 20.8834 11.7409 20.965 11.7633 21.01 11.7728ZM 21.439 11.1267C 21.439 10.8569 21.5207 10.6404 21.684 10.4771C 21.8307 10.3303 22.0094 10.257 22.22 10.257C 22.433 10.257 22.6129 10.3303 22.7596 10.4771C 22.9229 10.6404 23.0046 10.8569 23.0046 11.1267C 23.0046 11.4012 22.9229 11.6213 22.7596 11.787C 22.6129 11.9385 22.433 12.0142 22.22 12.0142C 22.0094 12.0142 21.8307 11.9385 21.684 11.787C 21.5207 11.6213 21.439 11.4012 21.439 11.1267ZM 21.8792 11.148C 21.8792 11.4225 21.949 11.5906 22.0887 11.6521C 22.1289 11.671 22.1727 11.6805 22.22 11.6805C 22.3833 11.6805 22.4886 11.5858 22.536 11.3965C 22.5549 11.3302 22.5644 11.2474 22.5644 11.148C 22.5644 10.864 22.4934 10.6889 22.3514 10.6226C 22.3111 10.6013 22.2673 10.5906 22.22 10.5906C 22.0614 10.5906 21.9561 10.6912 21.9041 10.8924C 21.8875 10.9634 21.8792 11.0486 21.8792 11.148ZM 23.5908 9.9055C 23.5198 9.9055 23.4583 9.88065 23.4062 9.83095C 23.3565 9.77888 23.3317 9.71853 23.3317 9.6499C 23.3317 9.5789 23.3565 9.51855 23.4062 9.46885C 23.4583 9.41678 23.5198 9.39075 23.5908 9.39075C 23.6618 9.39075 23.7222 9.41678 23.7719 9.46885C 23.8216 9.51855 23.8464 9.5789 23.8464 9.6499C 23.8464 9.71853 23.8216 9.77888 23.7719 9.83095C 23.7222 9.88065 23.6618 9.9055 23.5908 9.9055ZM 23.1826 10.3457L 23.7115 10.2534L 23.8322 10.3812L 23.8322 11.7337L 24.0275 11.7728L 24.0275 12L 23.2429 12L 23.2039 11.7728L 23.4027 11.7267L 23.4027 10.5871L 23.2216 10.5871L 23.1826 10.3457ZM 24.9689 10.257C 25.0541 10.257 25.1346 10.2723 25.2103 10.3031L 25.2103 9.6996L 25.0293 9.6996L 24.9902 9.4582L 25.5156 9.38365L 25.6399 9.515L 25.6399 11.6273C 25.6399 11.6793 25.6624 11.7054 25.7073 11.7054C 25.731 11.7054 25.757 11.6983 25.7854 11.684L 25.8529 11.8687C 25.8126 11.9231 25.7464 11.9657 25.6541 11.9964C 25.6186 12.0083 25.5795 12.0142 25.5369 12.0142C 25.4044 12.0142 25.3109 11.9645 25.2565 11.8651C 25.1713 11.9645 25.0458 12.0142 24.8802 12.0142C 24.679 12.0142 24.5169 11.9396 24.3938 11.7906C 24.2684 11.6367 24.2057 11.4296 24.2057 11.1693C 24.2057 10.8474 24.2921 10.606 24.4648 10.4451C 24.5997 10.3197 24.7678 10.257 24.9689 10.257ZM 25.2103 10.6581C 25.1583 10.6108 25.0884 10.5871 25.0009 10.5871C 24.8399 10.5871 24.7323 10.6853 24.6778 10.8818C 24.6565 10.9575 24.6459 11.0675 24.6459 11.2119C 24.6459 11.3539 24.6731 11.4675 24.7275 11.5527C 24.7843 11.6355 24.8624 11.677 24.9618 11.677C 25.0115 11.677 25.0624 11.6604 25.1145 11.6273C 25.1665 11.5941 25.1985 11.5527 25.2103 11.503L 25.2103 10.6581ZM 27.6453 10.257C 27.7305 10.257 27.811 10.2723 27.8867 10.3031L 27.8867 9.6996L 27.7056 9.6996L 27.6666 9.4582L 28.192 9.38365L 28.3162 9.515L 28.3162 11.6273C 28.3162 11.6793 28.3387 11.7054 28.3837 11.7054C 28.4074 11.7054 28.4334 11.6983 28.4618 11.684L 28.5292 11.8687C 28.489 11.9231 28.4227 11.9657 28.3304 11.9964C 28.2949 12.0083 28.2559 12.0142 28.2133 12.0142C 28.0808 12.0142 27.9873 11.9645 27.9328 11.8651C 27.8476 11.9645 27.7222 12.0142 27.5565 12.0142C 27.3554 12.0142 27.1933 11.9396 27.0702 11.7906C 26.9448 11.6367 26.882 11.4296 26.882 11.1693C 26.882 10.8474 26.9684 10.606 27.1412 10.4451C 27.2761 10.3197 27.4441 10.257 27.6453 10.257ZM 27.8867 10.6581C 27.8346 10.6108 27.7648 10.5871 27.6772 10.5871C 27.5163 10.5871 27.4086 10.6853 27.3542 10.8818C 27.3329 10.9575 27.3222 11.0675 27.3222 11.2119C 27.3222 11.3539 27.3495 11.4675 27.4039 11.5527C 27.4607 11.6355 27.5388 11.677 27.6382 11.677C 27.6879 11.677 27.7388 11.6604 27.7908 11.6273C 27.8429 11.5941 27.8749 11.5527 27.8867 11.503L 27.8867 10.6581ZM 29.1285 11.2971C 29.1617 11.5503 29.3048 11.677 29.5581 11.677C 29.6669 11.677 29.7545 11.6568 29.8208 11.6166C 29.887 11.574 29.9415 11.5326 29.9841 11.4923L 30.0657 11.8012C 29.9995 11.8888 29.874 11.9527 29.6894 11.9929C 29.6279 12.0071 29.5533 12.0142 29.4658 12.0142C 29.3782 12.0142 29.2859 11.9964 29.1889 11.961C 29.0942 11.9255 29.009 11.8722 28.9333 11.8012C 28.7652 11.6426 28.6812 11.4261 28.6812 11.1516C 28.6812 10.8628 28.7664 10.6356 28.9368 10.47C 29.0788 10.328 29.2575 10.257 29.4729 10.257C 29.6362 10.257 29.7746 10.296 29.8882 10.3741C 30.016 10.464 30.0799 10.5871 30.0799 10.7433C 30.0799 10.9303 30.003 11.0723 29.8492 11.1693C 29.7119 11.2569 29.532 11.3007 29.3096 11.3007L 29.2137 11.3007C 29.183 11.3007 29.1546 11.2995 29.1285 11.2971ZM 29.1321 10.9989C 29.1439 11.0013 29.1617 11.0025 29.1853 11.0025L 29.2492 11.0025C 29.422 11.0025 29.5415 10.9598 29.6078 10.8747C 29.6314 10.8439 29.6433 10.8036 29.6433 10.7539C 29.6433 10.7019 29.6279 10.6628 29.5971 10.6368C 29.5664 10.6084 29.5285 10.5942 29.4835 10.5942C 29.4386 10.5942 29.396 10.6048 29.3557 10.6262C 29.3155 10.6474 29.28 10.677 29.2492 10.7149C 29.1806 10.7906 29.1415 10.8853 29.1321 10.9989ZM 30.8577 12L 30.3891 10.5552L 30.2116 10.5552L 30.1832 10.2996L 30.7796 10.257L 31.163 11.5491L 31.5322 10.5552L 31.3831 10.5552L 31.3512 10.2996L 31.8766 10.257L 31.944 10.3847L 31.3512 12L 30.8577 12ZM 32.5052 11.2971C 32.5383 11.5503 32.6815 11.677 32.9347 11.677C 33.0436 11.677 33.1312 11.6568 33.1974 11.6166C 33.2637 11.574 33.3181 11.5326 33.3607 11.4923L 33.4424 11.8012C 33.3761 11.8888 33.2507 11.9527 33.0661 11.9929C 33.0046 12.0071 32.93 12.0142 32.8424 12.0142C 32.7549 12.0142 32.6626 11.9964 32.5655 11.961C 32.4709 11.9255 32.3857 11.8722 32.3099 11.8012C 32.1419 11.6426 32.0579 11.4261 32.0579 11.1516C 32.0579 10.8628 32.1431 10.6356 32.3135 10.47C 32.4555 10.328 32.6342 10.257 32.8495 10.257C 33.0128 10.257 33.1513 10.296 33.2649 10.3741C 33.3927 10.464 33.4566 10.5871 33.4566 10.7433C 33.4566 10.9303 33.3797 11.0723 33.2258 11.1693C 33.0886 11.2569 32.9087 11.3007 32.6862 11.3007L 32.5904 11.3007C 32.5596 11.3007 32.5312 11.2995 32.5052 11.2971ZM 32.5087 10.9989C 32.5206 11.0013 32.5383 11.0025 32.562 11.0025L 32.6259 11.0025C 32.7987 11.0025 32.9182 10.9598 32.9844 10.8747C 33.0081 10.8439 33.0199 10.8036 33.0199 10.7539C 33.0199 10.7019 33.0046 10.6628 32.9738 10.6368C 32.943 10.6084 32.9052 10.5942 32.8602 10.5942C 32.8152 10.5942 32.7726 10.6048 32.7324 10.6262C 32.6922 10.6474 32.6567 10.677 32.6259 10.7149C 32.5573 10.7906 32.5182 10.8853 32.5087 10.9989ZM 34.2735 9.515L 34.2735 11.7195L 34.5042 11.7763L 34.5042 12L 33.6842 12L 33.6451 11.7763L 33.8439 11.7267L 33.8439 9.6996L 33.6593 9.6996L 33.6203 9.4582L 34.1492 9.38365L 34.2735 9.515ZM 34.651 11.1267C 34.651 10.8569 34.7326 10.6404 34.8959 10.4771C 35.0427 10.3303 35.2213 10.257 35.432 10.257C 35.645 10.257 35.8248 10.3303 35.9716 10.4771C 36.1349 10.6404 36.2165 10.8569 36.2165 11.1267C 36.2165 11.4012 36.1349 11.6213 35.9716 11.787C 35.8248 11.9385 35.645 12.0142 35.432 12.0142C 35.2213 12.0142 35.0427 11.9385 34.8959 11.787C 34.7326 11.6213 34.651 11.4012 34.651 11.1267ZM 35.0912 11.148C 35.0912 11.4225 35.161 11.5906 35.3006 11.6521C 35.3409 11.671 35.3846 11.6805 35.432 11.6805C 35.5953 11.6805 35.7006 11.5858 35.7479 11.3965C 35.7669 11.3302 35.7763 11.2474 35.7763 11.148C 35.7763 10.864 35.7053 10.6889 35.5633 10.6226C 35.5231 10.6013 35.4793 10.5906 35.432 10.5906C 35.2734 10.5906 35.1681 10.6912 35.116 10.8924C 35.0995 10.9634 35.0912 11.0486 35.0912 11.148ZM 37.4347 12.7384L 37.4311 12.9691L 36.462 12.9691L 36.4052 12.7455L 36.5862 12.6922L 36.5862 10.5729L 36.4052 10.5977L 36.359 10.3421L 36.8915 10.257L 36.9732 10.3386C 37.0749 10.2842 37.185 10.257 37.3033 10.257C 37.4217 10.257 37.5234 10.2771 37.6086 10.3173C 37.6938 10.3552 37.7672 10.4108 37.8287 10.4842C 37.9565 10.6356 38.0204 10.8439 38.0204 11.109C 38.0204 11.4308 37.9376 11.6687 37.7719 11.8225C 37.6323 11.9503 37.4512 12.0142 37.2288 12.0142C 37.1578 12.0142 37.0868 12.0047 37.0158 11.9858L 37.0158 12.6461L 37.4347 12.7384ZM 37.0158 11.6344C 37.0607 11.6651 37.1317 11.6805 37.2288 11.6805C 37.3258 11.6805 37.4086 11.6367 37.4773 11.5491C 37.5459 11.4592 37.5802 11.3208 37.5802 11.1338C 37.5802 10.9445 37.5483 10.8072 37.4844 10.722C 37.4205 10.6344 37.3412 10.5906 37.2465 10.5906C 37.1519 10.5906 37.0749 10.612 37.0158 10.6545L 37.0158 11.6344ZM 40.0004 11.7728L 39.9969 12L 39.2159 12L 39.2159 11.7728L 39.3863 11.7337L 39.3863 10.825C 39.3863 10.6782 39.3129 10.6048 39.1662 10.6048C 39.0691 10.6048 38.9792 10.6368 38.8964 10.7007C 38.8774 10.7149 38.8644 10.7267 38.8573 10.7362L 38.8573 11.7337L 39.0597 11.7763L 39.0561 12L 38.268 12L 38.2219 11.7763L 38.4278 11.7267L 38.4278 10.5871L 38.2467 10.5871L 38.2077 10.3457L 38.7331 10.2534L 38.8573 10.3847C 38.9023 10.3516 38.9626 10.322 39.0384 10.296C 39.1141 10.27 39.191 10.257 39.2691 10.257C 39.4632 10.257 39.6087 10.3126 39.7058 10.4238C 39.8596 10.3126 40.0359 10.257 40.2347 10.257C 40.4808 10.257 40.6453 10.3433 40.7282 10.5161C 40.7566 10.5753 40.7708 10.6451 40.7708 10.7256L 40.7708 11.7302L 40.9518 11.7728L 40.9483 12L 40.1424 12L 40.1424 11.7763L 40.3412 11.7337L 40.3412 10.825C 40.3412 10.6782 40.2678 10.6048 40.1211 10.6048C 40.0241 10.6048 39.9353 10.6368 39.8549 10.7007C 39.8336 10.7149 39.8194 10.7267 39.8123 10.7362L 39.8123 11.7373L 40.0004 11.7728ZM 41.5674 11.2971C 41.6005 11.5503 41.7437 11.677 41.9969 11.677C 42.1058 11.677 42.1934 11.6568 42.2596 11.6166C 42.3259 11.574 42.3803 11.5326 42.4229 11.4923L 42.5046 11.8012C 42.4383 11.8888 42.3129 11.9527 42.1283 11.9929C 42.0668 12.0071 41.9922 12.0142 41.9046 12.0142C 41.8171 12.0142 41.7248 11.9964 41.6277 11.961C 41.5331 11.9255 41.4479 11.8722 41.3721 11.8012C 41.2041 11.6426 41.1201 11.4261 41.1201 11.1516C 41.1201 10.8628 41.2053 10.6356 41.3757 10.47C 41.5177 10.328 41.6964 10.257 41.9117 10.257C 42.075 10.257 42.2135 10.296 42.3271 10.3741C 42.4549 10.464 42.5188 10.5871 42.5188 10.7433C 42.5188 10.9303 42.4419 11.0723 42.288 11.1693C 42.1508 11.2569 41.9709 11.3007 41.7484 11.3007L 41.6526 11.3007C 41.6218 11.3007 41.5934 11.2995 41.5674 11.2971ZM 41.5709 10.9989C 41.5828 11.0013 41.6005 11.0025 41.6242 11.0025L 41.6881 11.0025C 41.8609 11.0025 41.9804 10.9598 42.0466 10.8747C 42.0703 10.8439 42.0821 10.8036 42.0821 10.7539C 42.0821 10.7019 42.0668 10.6628 42.036 10.6368C 42.0052 10.6084 41.9674 10.5942 41.9224 10.5942C 41.8774 10.5942 41.8348 10.6048 41.7946 10.6262C 41.7544 10.6474 41.7189 10.677 41.6881 10.7149C 41.6195 10.7906 41.5804 10.8853 41.5709 10.9989ZM 42.718 10.3457L 43.2434 10.2534L 43.3676 10.3847C 43.4126 10.3516 43.4729 10.322 43.5487 10.296C 43.6244 10.27 43.7001 10.257 43.7759 10.257C 43.8516 10.257 43.9226 10.2664 43.9889 10.2853C 44.0551 10.3043 44.1131 10.3327 44.1628 10.3706C 44.2717 10.4534 44.3261 10.5717 44.3261 10.7256L 44.3261 11.7409L 44.5214 11.7728L 44.5178 12L 43.7191 12L 43.7191 11.7728L 43.8966 11.7337L 43.8966 10.825C 43.8966 10.6782 43.8232 10.6048 43.6765 10.6048C 43.5794 10.6048 43.4895 10.6368 43.4067 10.7007C 43.3877 10.7149 43.3747 10.7267 43.3676 10.7362L 43.3676 11.7337L 43.57 11.7763L 43.5664 12L 42.7783 12L 42.7393 11.7728L 42.9381 11.7267L 42.9381 10.5871L 42.757 10.5871L 42.718 10.3457ZM 44.8866 11.4178L 44.8937 10.58L 44.6239 10.58L 44.5707 10.2925L 44.5955 10.257L 44.8973 10.257C 44.8997 10.1126 44.9008 9.98597 44.9008 9.8771C 44.9008 9.76823 44.902 9.69605 44.9044 9.66055L 45.2842 9.5789L 45.3162 9.6357L 45.3162 10.257L 45.6747 10.257C 45.6866 10.257 45.6925 10.2641 45.6925 10.2782L 45.6925 10.58L 45.3162 10.58L 45.3162 11.5066C 45.3162 11.5799 45.3257 11.6261 45.3446 11.645C 45.3635 11.6616 45.3907 11.6698 45.4262 11.6698C 45.4972 11.6698 45.5753 11.6355 45.6605 11.5669C 45.6629 11.5764 45.6688 11.5941 45.6783 11.6202C 45.6878 11.6462 45.6972 11.6734 45.7067 11.7018C 45.7304 11.7799 45.7446 11.8308 45.7493 11.8544C 45.7162 11.89 45.6605 11.9255 45.5824 11.961C 45.5067 11.9964 45.431 12.0142 45.3552 12.0142C 45.2819 12.0142 45.218 12.0071 45.1635 11.9929C 45.1115 11.9763 45.0653 11.9491 45.0251 11.9112C 44.9328 11.8284 44.8866 11.6947 44.8866 11.5101L 44.8866 11.4178ZM 47.1088 12L 46.8106 10.5552L 46.6828 10.5552L 46.658 10.2996L 47.1976 10.257L 47.4425 11.535L 47.7549 10.3173L 48.2626 10.3173L 48.5643 11.5491L 48.8128 10.5552L 48.6886 10.5552L 48.6602 10.2996L 49.1217 10.257L 49.1998 10.3847L 48.7915 12L 48.2342 12L 47.9537 10.8569L 47.6697 12L 47.1088 12ZM 49.7721 9.9055C 49.7011 9.9055 49.6395 9.88065 49.5875 9.83095C 49.5378 9.77888 49.5129 9.71853 49.5129 9.6499C 49.5129 9.5789 49.5378 9.51855 49.5875 9.46885C 49.6395 9.41678 49.7011 9.39075 49.7721 9.39075C 49.8431 9.39075 49.9034 9.41678 49.9531 9.46885C 50.0028 9.51855 50.0277 9.5789 50.0277 9.6499C 50.0277 9.71853 50.0028 9.77888 49.9531 9.83095C 49.9034 9.88065 49.8431 9.9055 49.7721 9.9055ZM 49.3638 10.3457L 49.8928 10.2534L 50.0135 10.3812L 50.0135 11.7337L 50.2087 11.7728L 50.2087 12L 49.4242 12L 49.3851 11.7728L 49.5839 11.7267L 49.5839 10.5871L 49.4029 10.5871L 49.3638 10.3457ZM 50.5965 11.4178L 50.6036 10.58L 50.3338 10.58L 50.2805 10.2925L 50.3054 10.257L 50.6071 10.257C 50.6095 10.1126 50.6107 9.98597 50.6107 9.8771C 50.6107 9.76823 50.6118 9.69605 50.6142 9.66055L 50.9941 9.5789L 51.026 9.6357L 51.026 10.257L 51.3846 10.257C 51.3964 10.257 51.4023 10.2641 51.4023 10.2782L 51.4023 10.58L 51.026 10.58L 51.026 11.5066C 51.026 11.5799 51.0355 11.6261 51.0544 11.645C 51.0733 11.6616 51.1006 11.6698 51.1361 11.6698C 51.2071 11.6698 51.2852 11.6355 51.3704 11.5669C 51.3727 11.5764 51.3786 11.5941 51.3881 11.6202C 51.3976 11.6462 51.407 11.6734 51.4165 11.7018C 51.4402 11.7799 51.4544 11.8308 51.4591 11.8544C 51.426 11.89 51.3704 11.9255 51.2923 11.961C 51.2165 11.9964 51.1408 12.0142 51.0651 12.0142C 50.9917 12.0142 50.9278 12.0071 50.8734 11.9929C 50.8213 11.9763 50.7751 11.9491 50.7349 11.9112C 50.6426 11.8284 50.5965 11.6947 50.5965 11.5101L 50.5965 11.4178ZM 53.3645 11.7728L 53.3609 12L 52.5622 12L 52.5622 11.7728L 52.7397 11.7337L 52.7397 10.825C 52.7397 10.6782 52.6663 10.6048 52.5196 10.6048C 52.4226 10.6048 52.3326 10.6368 52.2498 10.7007C 52.2309 10.7149 52.2178 10.7267 52.2107 10.7362L 52.2107 11.7337L 52.4131 11.7728L 52.4095 12L 51.6214 12L 51.5788 11.7728L 51.7812 11.7267L 51.7812 9.6996L 51.5966 9.6996L 51.5611 9.4582L 52.0865 9.38365L 52.2107 9.515L 52.2107 10.3847C 52.2557 10.3516 52.3161 10.322 52.3918 10.296C 52.4675 10.27 52.5433 10.257 52.619 10.257C 52.6947 10.257 52.7657 10.2664 52.832 10.2853C 52.8983 10.3043 52.9562 10.3327 53.0059 10.3706C 53.1148 10.4534 53.1692 10.5717 53.1692 10.7256L 53.1692 11.7302L 53.3645 11.7728ZM 55.0014 9.515L 55.0014 11.7195L 55.2322 11.7763L 55.2322 12L 54.4121 12L 54.3731 11.7763L 54.5719 11.7267L 54.5719 9.6996L 54.3873 9.6996L 54.3482 9.4582L 54.8772 9.38365L 55.0014 9.515ZM 55.379 11.1267C 55.379 10.8569 55.4606 10.6404 55.6239 10.4771C 55.7706 10.3303 55.9493 10.257 56.16 10.257C 56.373 10.257 56.5528 10.3303 56.6996 10.4771C 56.8629 10.6404 56.9445 10.8569 56.9445 11.1267C 56.9445 11.4012 56.8629 11.6213 56.6996 11.787C 56.5528 11.9385 56.373 12.0142 56.16 12.0142C 55.9493 12.0142 55.7706 11.9385 55.6239 11.787C 55.4606 11.6213 55.379 11.4012 55.379 11.1267ZM 55.8192 11.148C 55.8192 11.4225 55.889 11.5906 56.0286 11.6521C 56.0688 11.671 56.1126 11.6805 56.16 11.6805C 56.3233 11.6805 56.4286 11.5858 56.4759 11.3965C 56.4948 11.3302 56.5043 11.2474 56.5043 11.148C 56.5043 10.864 56.4333 10.6889 56.2913 10.6226C 56.2511 10.6013 56.2073 10.5906 56.16 10.5906C 56.0014 10.5906 55.8961 10.6912 55.844 10.8924C 55.8274 10.9634 55.8192 11.0486 55.8192 11.148ZM 57.6942 12L 57.2256 10.5552L 57.0481 10.5552L 57.0197 10.2996L 57.6161 10.257L 57.9995 11.5491L 58.3687 10.5552L 58.2196 10.5552L 58.1877 10.2996L 58.7131 10.257L 58.7805 10.3847L 58.1877 12L 57.6942 12ZM 59.3417 11.2971C 59.3748 11.5503 59.518 11.677 59.7712 11.677C 59.8801 11.677 59.9676 11.6568 60.0339 11.6166C 60.1002 11.574 60.1546 11.5326 60.1972 11.4923L 60.2789 11.8012C 60.2126 11.8888 60.0872 11.9527 59.9026 11.9929C 59.841 12.0071 59.7665 12.0142 59.6789 12.0142C 59.5913 12.0142 59.499 11.9964 59.402 11.961C 59.3073 11.9255 59.2221 11.8722 59.1464 11.8012C 58.9784 11.6426 58.8944 11.4261 58.8944 11.1516C 58.8944 10.8628 58.9796 10.6356 59.15 10.47C 59.292 10.328 59.4706 10.257 59.686 10.257C 59.8493 10.257 59.9878 10.296 60.1014 10.3741C 60.2292 10.464 60.2931 10.5871 60.2931 10.7433C 60.2931 10.9303 60.2161 11.0723 60.0623 11.1693C 59.925 11.2569 59.7452 11.3007 59.5227 11.3007L 59.4269 11.3007C 59.3961 11.3007 59.3677 11.2995 59.3417 11.2971ZM 59.3452 10.9989C 59.357 11.0013 59.3748 11.0025 59.3985 11.0025L 59.4624 11.0025C 59.6351 11.0025 59.7546 10.9598 59.8209 10.8747C 59.8446 10.8439 59.8564 10.8036 59.8564 10.7539C 59.8564 10.7019 59.841 10.6628 59.8103 10.6368C 59.7795 10.6084 59.7416 10.5942 59.6967 10.5942C 59.6517 10.5942 59.6091 10.6048 59.5689 10.6262C 59.5286 10.6474 59.4931 10.677 59.4624 10.7149C 59.3937 10.7906 59.3547 10.8853 59.3452 10.9989ZM 60.5348 11.7763C 60.5348 11.7101 60.5585 11.6545 60.6058 11.6095C 60.6532 11.5645 60.7088 11.5421 60.7727 11.5421C 60.8389 11.5421 60.8946 11.5645 60.9395 11.6095C 60.9869 11.6545 61.0105 11.7101 61.0105 11.7763C 61.0105 11.8426 60.9869 11.8994 60.9395 11.9468C 60.8946 11.9917 60.8389 12.0142 60.7727 12.0142C 60.7088 12.0142 60.6532 11.9917 60.6058 11.9468C 60.5585 11.8994 60.5348 11.8426 60.5348 11.7763Z"/>
</defs>
</svg>
