<svg width="217" height="217" viewBox="0 0 217 217" version="1.1" xmlns="http://www.w3.org/2000/svg" xmlns:xlink="http://www.w3.org/1999/xlink" xmlns:figma="http://www.figma.com/figma/ns">
<title>Sticker Square</title>
<desc>Created using Figma</desc>
<g id="Canvas" transform="translate(-488 -95)" figma:type="canvas">
<mask id="mask0_alpha" mask-type="alpha">
<path d="M 488 95L 705 95L 705 312L 488 312L 488 95Z" fill="#FFFFFF"/>
</mask>
<g id="Sticker Square" mask="url(#mask0_alpha)" figma:type="frame">
<g id="Group" figma:type="frame">
<g id="Dots" figma:type="frame">
<g id="Vector" figma:type="vector">
<use xlink:href="#path0_fill" transform="translate(569.999 274.2)" fill="#FFFFFF"/>
</g>
<g id="Vector" figma:type="vector">
<use xlink:href="#path0_fill" transform="translate(613.199 274.199)" fill="#FFFFFF"/>
</g>
<g id="Vector" figma:type="vector">
<use xlink:href="#path0_fill" transform="translate(591.6 274.199)" fill="#FFFFFF"/>
</g>
</g>
<g id="Braces" figma:type="frame">
<g id="Vector" figma:type="vector">
<use xlink:href="#path1_fill" transform="translate(645.6 123)" fill="#FFFFFF"/>
</g>
<g id="Vector" figma:type="vector">
<use xlink:href="#path2_fill" transform="translate(516 123)" fill="#FFFFFF"/>
</g>
</g>
<g id="Bulb" figma:type="frame">
<g id="Vector" figma:type="vector">
<use xlink:href="#path3_fill" transform="translate(591.598 249.27)" fill="#9D1A41"/>
</g>
<g id="Vector" figma:type="vector">
<use xlink:href="#path4_fill" transform="translate(580.796 233.781)" fill="#BC0E46"/>
</g>
<g id="Vector" figma:type="vector">
<use xlink:href="#path5_fill" transform="translate(569.997 216.564)" fill="#DD1155"/>
</g>
<g id="Vector" figma:type="vector">
<use xlink:href="#path6_fill" transform="translate(559.2 148.629)" fill="#DD1155"/>
</g>
</g>
</g>
</g>
</g>
<defs>
<path id="path0_fill" d="M 5.39999 10.8C 8.38233 10.8 10.8 8.38233 10.8 5.39999C 10.8 2.41766 8.38233 0 5.39999 0C 2.41766 0 0 2.41766 0 5.39999C 0 8.38233 2.41766 10.8 5.39999 10.8Z"/>
<path id="path1_fill" d="M 21.6 45L 21.6 16.2C 21.6 11.9035 19.8932 7.78295 16.8551 4.74487C 13.817 1.70678 9.6965 1.27898e-14 5.4 6.39488e-15L 0 6.39488e-15L 0 10.8L 5.4 10.8C 6.83217 10.8 8.20568 11.3689 9.21838 12.3816C 10.2311 13.3943 10.8 14.7678 10.8 16.2L 10.8 45C 10.8 52.5779 10.8 71.6219 19.575 80.9999C 10.8 90.3779 10.8 109.422 10.8 117L 10.8 145.8C 10.8 147.232 10.2311 148.606 9.21838 149.618C 8.20568 150.631 6.83217 151.2 5.4 151.2L 0 151.2L 0 162L 5.4 162C 9.6965 162 13.817 160.293 16.8551 157.255C 19.8932 154.217 21.6 150.096 21.6 145.8L 21.6 117C 21.6 96.6959 25.2 86.3999 32.4 86.3999L 32.4 75.5999C 25.2 75.5999 21.6 65.3039 21.6 45Z"/>
<path id="path2_fill" d="M 10.8 45L 10.8 16.2C 10.8 11.9035 12.5068 7.78295 15.5449 4.74487C 18.583 1.70678 22.7035 1.91846e-14 27 6.39488e-15L 32.4 6.39488e-15L 32.4 10.8L 27 10.8C 25.5678 10.8 24.1943 11.3689 23.1816 12.3816C 22.1689 13.3943 21.6 14.7678 21.6 16.2L 21.6 45C 21.6 52.5779 21.6 71.6219 12.825 80.9999C 21.6 90.3779 21.6 109.422 21.6 117L 21.6 145.8C 21.6 147.232 22.1689 148.606 23.1816 149.618C 24.1943 150.631 25.5678 151.2 27 151.2L 32.4 151.2L 32.4 162L 27 162C 22.7035 162 18.583 160.293 15.5449 157.255C 12.5068 154.217 10.8 150.096 10.8 145.8L 10.8 117C 10.8 96.6959 7.2 86.3999 0 86.3999L 0 75.5999C 7.2 75.5999 10.8 65.3039 10.8 45Z"/>
<path id="path3_fill" d="M 0.00301625 2.898L 0.00301625 8.29799C -0.0116556 8.51416 0.0273569 8.7306 0.116581 8.92805C 0.205804 9.1255 0.342471 9.29782 0.514409 9.42967C 0.686347 9.56152 0.888219 9.64879 1.10205 9.68374C 1.31589 9.71869 1.53505 9.70023 1.74002 9.62998L 9.06602 7.66799C 9.55376 7.51467 9.9823 7.21457 10.2932 6.80867C 10.604 6.40277 10.7821 5.91083 10.803 5.39999L 10.803 2.74658e-06L 0.00301625 2.898Z"/>
<path id="path4_fill" d="M 0.00301624 8.685L 0.00301624 15.885C -0.0116556 16.1012 0.0273568 16.3176 0.11658 16.5151C 0.205804 16.7125 0.342471 16.8848 0.514408 17.0167C 0.686346 17.1485 0.888218 17.2358 1.10205 17.2708C 1.31589 17.3057 1.53505 17.2872 1.74001 17.217L 30.666 9.46799C 31.1537 9.31467 31.5823 9.01459 31.8931 8.60869C 32.204 8.20278 32.382 7.71083 32.403 7.19999L 32.403 -3.2959e-06L 0.00301624 8.685Z"/>
<path id="path5_fill" d="M 0.00301624 14.436L 0.00301624 23.436C -0.0116556 23.6522 0.0273568 23.8686 0.11658 24.0661C 0.205804 24.2635 0.342471 24.4358 0.514408 24.5677C 0.686346 24.6995 0.888218 24.7868 1.10205 24.8218C 1.31589 24.8567 1.53505 24.8382 1.74001 24.768L 52.2659 11.268C 52.7537 11.1147 53.1822 10.8146 53.4931 10.4087C 53.804 10.0028 53.982 9.51084 54.0029 9L 54.0029 6.04248e-06L 0.00301624 14.436Z"/>
<path id="path6_fill" d="M 75.5999 37.8035C 75.6005 31.6034 74.076 25.4984 71.1607 20.0264C 68.2454 14.5545 64.0289 9.88366 58.8828 6.42559C 53.7367 2.96751 47.8189 0.82838 41.6511 0.196703C 35.4833 -0.434974 29.2548 0.460209 23.5145 2.80335C 17.7743 5.14649 12.6985 8.86565 8.73457 13.6331C 4.77063 18.4005 2.04024 24.0697 0.784019 30.1412C -0.4722 36.2127 -0.215669 42.4999 1.531 48.4489C 3.27767 54.3978 6.46084 59.8258 10.8 64.2544L 10.8 78.7714L 21.6 75.8734L 21.6 59.3854C 17.0665 55.9854 13.7178 51.245 12.0281 45.836C 10.3385 40.4269 10.3935 34.6233 12.1855 29.2473C 13.9775 23.8713 17.4156 19.1954 22.0128 15.8819C 26.61 12.5685 32.1331 10.7855 37.8 10.7855C 43.4668 10.7855 48.99 12.5685 53.5871 15.8819C 58.1843 19.1954 61.6224 23.8713 63.4144 29.2473C 65.2064 34.6233 65.2615 40.4269 63.5718 45.836C 61.8821 51.245 58.5334 55.9854 53.9999 59.3854L 53.9999 67.1524L 64.7999 64.2634C 71.7354 57.2042 75.6149 47.6996 75.5999 37.8035Z"/>
</defs>
</svg>
