<svg width="217" height="217" viewBox="0 0 217 217" version="1.1" xmlns="http://www.w3.org/2000/svg" xmlns:xlink="http://www.w3.org/1999/xlink" xmlns:figma="http://www.figma.com/figma/ns">
<title>Sticker Square Transparent</title>
<desc>Created using Figma</desc>
<g id="Canvas" transform="translate(-488 -340)" figma:type="canvas">
<mask id="mask0_alpha" mask-type="alpha">
<path d="M 488 340L 705 340L 705 557L 488 557L 488 340Z" fill="#FFFFFF"/>
</mask>
<g id="Sticker Square Transparent" mask="url(#mask0_alpha)" figma:type="frame">
<g id="Group" figma:type="frame">
<g id="Dots" figma:type="frame">
<g id="Vector" figma:type="vector">
<use xlink:href="#path0_fill" transform="translate(566.999 527.001)" fill="#212121"/>
</g>
<g id="Vector" figma:type="vector">
<use xlink:href="#path0_fill" transform="translate(614.999 527)" fill="#212121"/>
</g>
<g id="Vector" figma:type="vector">
<use xlink:href="#path0_fill" transform="translate(591.001 527)" fill="#212121"/>
</g>
</g>
<g id="Braces" figma:type="frame">
<g id="Vector" figma:type="vector">
<use xlink:href="#path1_fill" transform="translate(651 359)" fill="#212121"/>
</g>
<g id="Vector" figma:type="vector">
<use xlink:href="#path2_fill" transform="translate(507 359)" fill="#212121"/>
</g>
</g>
<g id="Bulb" figma:type="frame">
<g id="Vector" figma:type="vector">
<use xlink:href="#path3_fill" transform="translate(590.998 499.301)" fill="#9D1A41"/>
</g>
<g id="Vector" figma:type="vector">
<use xlink:href="#path4_fill" transform="translate(578.996 482.09)" fill="#BC0E46"/>
</g>
<g id="Vector" figma:type="vector">
<use xlink:href="#path5_fill" transform="translate(566.997 462.961)" fill="#DD1155"/>
</g>
<g id="Vector" figma:type="vector">
<use xlink:href="#path6_fill" transform="translate(555 387.476)" fill="#DD1155"/>
</g>
</g>
</g>
</g>
</g>
<defs>
<path id="path0_fill" d="M 6.00001 12C 9.31373 12 12 9.31373 12 6.00001C 12 2.6863 9.31373 0 6.00001 0C 2.6863 0 0 2.6863 0 6.00001C 0 9.31373 2.6863 12 6.00001 12Z"/>
<path id="path1_fill" d="M 24.0001 50.0001L 24.0001 18C 24.0001 13.2261 22.1037 8.64775 18.728 5.27209C 15.3523 1.89643 10.7739 1.42109e-14 6.00002 7.10544e-15L 0 7.10544e-15L 0 12L 6.00002 12C 7.59133 12 9.11746 12.6322 10.2427 13.7574C 11.3679 14.8826 12 16.4087 12 18L 12 50.0001C 12 58.4201 12 79.5802 21.7501 90.0002C 12 100.42 12 121.58 12 130L 12 162C 12 163.592 11.3679 165.118 10.2427 166.243C 9.11746 167.368 7.59133 168 6.00002 168L 0 168L 0 180L 6.00002 180C 10.7739 180 15.3523 178.104 18.728 174.728C 22.1037 171.353 24.0001 166.774 24.0001 162L 24.0001 130C 24.0001 107.44 28.0001 96.0002 36.0001 96.0002L 36.0001 84.0002C 28.0001 84.0002 24.0001 72.5602 24.0001 50.0001Z"/>
<path id="path2_fill" d="M 12 50.0001L 12 18C 12 13.2261 13.8965 8.64775 17.2721 5.27209C 20.6478 1.89643 25.2262 2.13163e-14 30.0001 7.10544e-15L 36.0001 7.10544e-15L 36.0001 12L 30.0001 12C 28.4088 12 26.8827 12.6322 25.7574 13.7574C 24.6322 14.8826 24.0001 16.4087 24.0001 18L 24.0001 50.0001C 24.0001 58.4201 24.0001 79.5802 14.25 90.0002C 24.0001 100.42 24.0001 121.58 24.0001 130L 24.0001 162C 24.0001 163.592 24.6322 165.118 25.7574 166.243C 26.8827 167.368 28.4088 168 30.0001 168L 36.0001 168L 36.0001 180L 30.0001 180C 25.2262 180 20.6478 178.104 17.2721 174.728C 13.8965 171.353 12 166.774 12 162L 12 130C 12 107.44 8.00003 96.0002 0 96.0002L 0 84.0002C 8.00003 84.0002 12 72.5602 12 50.0001Z"/>
<path id="path3_fill" d="M 0.0033514 3.22001L 0.0033514 9.22001C -0.0129507 9.46021 0.0303966 9.7007 0.129534 9.92008C 0.228672 10.1395 0.380525 10.3309 0.571568 10.4774C 0.762611 10.6239 0.986914 10.7209 1.22451 10.7597C 1.4621 10.7986 1.70562 10.7781 1.93336 10.7L 10.0734 8.52001C 10.6153 8.34965 11.0915 8.01621 11.4369 7.56521C 11.7823 7.11421 11.9801 6.56761 12.0034 6.00001L 12.0034 3.05176e-06L 0.0033514 3.22001Z"/>
<path id="path4_fill" d="M 0.00335139 9.65003L 0.00335139 17.6501C -0.0129507 17.8903 0.0303966 18.1307 0.129534 18.3501C 0.228672 18.5695 0.380525 18.761 0.571567 18.9075C 0.76261 19.054 0.986913 19.151 1.22451 19.1898C 1.4621 19.2286 1.70561 19.2081 1.93336 19.1301L 34.0734 10.52C 34.6154 10.3497 35.0915 10.0162 35.4369 9.56524C 35.7824 9.11424 35.9802 8.56762 36.0034 8.00002L 36.0034 -3.66212e-06L 0.00335139 9.65003Z"/>
<path id="path5_fill" d="M 0.00335139 16.0401L 0.00335139 26.0401C -0.0129507 26.2803 0.0303966 26.5208 0.129534 26.7402C 0.228672 26.9596 0.380524 27.151 0.571567 27.2975C 0.762609 27.444 0.986912 27.541 1.22451 27.5798C 1.4621 27.6187 1.70561 27.5981 1.93336 27.5201L 58.0735 12.52C 58.6154 12.3497 59.0916 12.0163 59.437 11.5652C 59.7824 11.1142 59.9802 10.5676 60.0035 10L 60.0035 6.71389e-06L 0.00335139 16.0401Z"/>
<path id="path6_fill" d="M 84.0002 42.004C 84.0009 35.115 82.3069 28.3316 79.0677 22.2517C 75.8285 16.1717 71.1435 10.9819 65.4256 7.13957C 59.7076 3.29725 53.1323 0.920425 46.2792 0.218559C 39.426 -0.483306 32.5054 0.511345 26.1274 3.11485C 19.7493 5.71835 14.1095 9.85076 9.70511 15.1479C 5.30072 20.445 2.26694 26.7442 0.871136 33.4903C -0.524669 40.2364 -0.239633 47.2223 1.70112 53.8323C 3.64187 60.4423 7.17874 66.4734 12 71.3941L 12 87.5241L 24.0001 84.3041L 24.0001 65.9841C 18.9629 62.2062 15.242 56.9391 13.3646 50.9291C 11.4872 44.919 11.5484 38.4705 13.5395 32.4971C 15.5307 26.5238 19.3508 21.3283 24.4588 17.6467C 29.5667 13.965 35.7036 11.9839 42.0001 11.9839C 48.2966 11.9839 54.4335 13.965 59.5415 17.6467C 64.6494 21.3283 68.4696 26.5238 70.4607 32.4971C 72.4518 38.4705 72.513 44.919 70.6356 50.9291C 68.7582 56.9391 65.0374 62.2062 60.0002 65.9841L 60.0002 74.6141L 72.0002 71.4041C 79.7063 63.5605 84.0168 52.9997 84.0002 42.004Z"/>
</defs>
</svg>
