<svg width="217" height="217" viewBox="0 0 217 217" version="1.1" xmlns="http://www.w3.org/2000/svg" xmlns:xlink="http://www.w3.org/1999/xlink" xmlns:figma="http://www.figma.com/figma/ns">
<title>Sticker Circle</title>
<desc>Created using Figma</desc>
<g id="Canvas" transform="translate(-733 -94)" figma:type="canvas">
<mask id="mask0_alpha" mask-type="alpha">
<path d="M 733 94L 950 94L 950 311L 733 311L 733 94Z" fill="#FFFFFF"/>
</mask>
<g id="Sticker Circle" mask="url(#mask0_alpha)" figma:type="frame">
<mask id="mask1_alpha" mask-type="alpha">
<g id="Mask" figma:type="ellipse">
<use xlink:href="#path0_fill" transform="translate(733 94)" fill="#C4C4C4"/>
</g>
</mask>
<g id="Background" mask="url(#mask1_alpha)" figma:type="rounded-rectangle">
<use xlink:href="#path1_fill" transform="translate(733 94)" fill="#212121"/>
</g>
<g id="Logo" mask="url(#mask1_alpha)" figma:type="frame">
<g id="Dots" figma:type="frame">
<g id="Vector" figma:type="vector">
<use xlink:href="#path2_fill" transform="translate(818.667 263.667)" fill="#FFFFFF"/>
</g>
<g id="Vector" figma:type="vector">
<use xlink:href="#path2_fill" transform="translate(856 263.667)" fill="#FFFFFF"/>
</g>
<g id="Vector" figma:type="vector">
<use xlink:href="#path2_fill" transform="translate(837.333 263.667)" fill="#FFFFFF"/>
</g>
</g>
<g id="Braces" figma:type="frame">
<g id="Vector" figma:type="vector">
<use xlink:href="#path3_fill" transform="translate(884 133)" fill="#FFFFFF"/>
</g>
<g id="Vector" figma:type="vector">
<use xlink:href="#path4_fill" transform="translate(772 133)" fill="#FFFFFF"/>
</g>
</g>
<g id="Bulb" figma:type="frame">
<g id="Vector" figma:type="vector">
<use xlink:href="#path5_fill" transform="translate(837.331 242.122)" fill="#9D1A41"/>
</g>
<g id="Vector" figma:type="vector">
<use xlink:href="#path6_fill" transform="translate(827.997 228.737)" fill="#BC0E46"/>
</g>
<g id="Vector" figma:type="vector">
<use xlink:href="#path7_fill" transform="translate(818.664 213.858)" fill="#DD1155"/>
</g>
<g id="Vector" figma:type="vector">
<use xlink:href="#path8_fill" transform="translate(809.333 155.148)" fill="#DD1155"/>
</g>
</g>
</g>
</g>
</g>
<defs>
<path id="path0_fill" d="M 217 108.5C 217 168.423 168.423 217 108.5 217C 48.5771 217 0 168.423 0 108.5C 0 48.5771 48.5771 0 108.5 0C 168.423 0 217 48.5771 217 108.5Z"/>
<path id="path1_fill" d="M 0 0L 217 0L 217 217L 0 217L 0 0Z"/>
<path id="path2_fill" d="M 4.66667 9.33334C 7.244 9.33334 9.33334 7.244 9.33334 4.66667C 9.33334 2.08934 7.244 0 4.66667 0C 2.08934 0 0 2.08934 0 4.66667C 0 7.244 2.08934 9.33334 4.66667 9.33334Z"/>
<path id="path3_fill" d="M 18.6667 38.8889L 18.6667 14C 18.6667 10.287 17.1917 6.72602 14.5662 4.10051C 11.9407 1.475 8.37971 1.10529e-14 4.66667 5.52645e-15L 0 5.52645e-15L 0 9.33334L 4.66667 9.33334C 5.90435 9.33334 7.09134 9.82501 7.96651 10.7002C 8.84168 11.5753 9.33334 12.7623 9.33334 14L 9.33334 38.8889C 9.33334 45.4378 9.33334 61.8956 16.9167 70.0001C 9.33334 78.1045 9.33334 94.5623 9.33334 101.111L 9.33334 126C 9.33334 127.238 8.84168 128.425 7.96651 129.3C 7.09134 130.175 5.90435 130.667 4.66667 130.667L 0 130.667L 0 140L 4.66667 140C 8.37971 140 11.9407 138.525 14.5662 135.9C 17.1917 133.274 18.6667 129.713 18.6667 126L 18.6667 101.111C 18.6667 83.5645 21.7778 74.6667 28 74.6667L 28 65.3334C 21.7778 65.3334 18.6667 56.4356 18.6667 38.8889Z"/>
<path id="path4_fill" d="M 9.33334 38.8889L 9.33334 14C 9.33334 10.287 10.8083 6.72602 13.4339 4.10051C 16.0594 1.475 19.6203 1.65793e-14 23.3334 5.52645e-15L 28 5.52645e-15L 28 9.33334L 23.3334 9.33334C 22.0957 9.33334 20.9087 9.82501 20.0335 10.7002C 19.1583 11.5753 18.6667 12.7623 18.6667 14L 18.6667 38.8889C 18.6667 45.4378 18.6667 61.8956 11.0833 70.0001C 18.6667 78.1045 18.6667 94.5623 18.6667 101.111L 18.6667 126C 18.6667 127.238 19.1583 128.425 20.0335 129.3C 20.9087 130.175 22.0957 130.667 23.3334 130.667L 28 130.667L 28 140L 23.3334 140C 19.6203 140 16.0594 138.525 13.4339 135.9C 10.8083 133.274 9.33334 129.713 9.33334 126L 9.33334 101.111C 9.33334 83.5645 6.22223 74.6667 0 74.6667L 0 65.3334C 6.22223 65.3334 9.33334 56.4356 9.33334 38.8889Z"/>
<path id="path5_fill" d="M 0.00260664 2.50445L 0.00260664 7.17112C -0.0100727 7.35794 0.0236418 7.54498 0.100749 7.71562C 0.177856 7.88625 0.295963 8.03518 0.444552 8.14912C 0.59314 8.26306 0.767598 8.33849 0.952393 8.36869C 1.13719 8.39889 1.32659 8.38293 1.50372 8.32223L 7.83484 6.62668C 8.25635 6.49417 8.62669 6.23483 8.89534 5.88405C 9.16399 5.53327 9.31786 5.10814 9.33595 4.66667L 9.33595 2.37359e-06L 0.00260664 2.50445Z"/>
<path id="path6_fill" d="M 0.00260663 7.50557L 0.00260663 13.7278C -0.0100727 13.9146 0.0236418 14.1017 0.100749 14.2723C 0.177856 14.4429 0.295963 14.5919 0.444551 14.7058C 0.59314 14.8197 0.767597 14.8952 0.952393 14.9254C 1.13719 14.9556 1.32659 14.9396 1.50372 14.8789L 26.5015 8.18223C 26.923 8.04973 27.2934 7.7904 27.562 7.43962C 27.8307 7.08884 27.9845 6.66369 28.0026 6.22222L 28.0026 -2.84831e-06L 0.00260663 7.50557Z"/>
<path id="path7_fill" d="M 0.00260663 12.4756L 0.00260663 20.2534C -0.0100727 20.4402 0.0236418 20.6272 0.100749 20.7979C 0.177856 20.9685 0.295963 21.1174 0.444551 21.2314C 0.59314 21.3453 0.767597 21.4207 0.952393 21.4509C 1.13719 21.4811 1.32659 21.4652 1.50372 21.4045L 45.1682 9.73779C 45.5897 9.60528 45.96 9.34595 46.2287 8.99517C 46.4973 8.64439 46.6512 8.21926 46.6693 7.77779L 46.6693 5.2219e-06L 0.00260663 12.4756Z"/>
<path id="path8_fill" d="M 65.3334 32.6697C 65.3339 27.3116 64.0164 22.0357 61.497 17.3068C 58.9776 12.578 55.3337 8.54145 50.8864 5.55299C 46.4392 2.56452 41.3251 0.715885 35.9948 0.16999C 30.6646 -0.375904 25.282 0.397712 20.3212 2.42265C 15.3605 4.44759 10.974 7.66169 7.54841 11.7817C 4.12278 15.9017 1.76317 20.801 0.677549 26.048C -0.408075 31.2949 -0.186381 36.7284 1.32309 41.8695C 2.83256 47.0106 5.58346 51.7014 9.33334 55.5286L 9.33334 68.0742L 18.6667 65.5697L 18.6667 51.3208C 14.7489 48.3825 11.8549 44.2859 10.3947 39.6114C 8.93449 34.9369 8.98208 29.9215 10.5307 25.2755C 12.0794 20.6296 15.0506 16.5886 19.0234 13.7252C 22.9963 10.8617 27.7694 9.32081 32.6667 9.32081C 37.564 9.32081 42.3371 10.8617 46.3099 13.7252C 50.2828 16.5886 53.254 20.6296 54.8027 25.2755C 56.3513 29.9215 56.3989 34.9369 54.9387 39.6114C 53.4785 44.2859 50.5845 48.3825 46.6667 51.3208L 46.6667 58.0331L 56 55.5364C 61.9937 49.4358 65.3463 41.2219 65.3334 32.6697Z"/>
</defs>
</svg>
