<svg width="217" height="217" viewBox="0 0 217 217" version="1.1" xmlns="http://www.w3.org/2000/svg" xmlns:xlink="http://www.w3.org/1999/xlink" xmlns:figma="http://www.figma.com/figma/ns">
<title>Sticker Circle White</title>
<desc>Created using Figma</desc>
<g id="Canvas" transform="translate(-733 -340)" figma:type="canvas">
<mask id="mask0_alpha" mask-type="alpha">
<path d="M 733 340L 950 340L 950 557L 733 557L 733 340Z" fill="#FFFFFF"/>
</mask>
<g id="Sticker Circle White" mask="url(#mask0_alpha)" figma:type="frame">
<mask id="mask1_alpha" mask-type="alpha">
<g id="Mask" figma:type="ellipse">
<use xlink:href="#path0_fill" transform="translate(733 340)" fill="#C4C4C4"/>
</g>
</mask>
<g id="Background" mask="url(#mask1_alpha)" figma:type="rounded-rectangle">
<use xlink:href="#path1_fill" transform="translate(733 340)" fill="#FFFFFF"/>
</g>
<g id="Logo" mask="url(#mask1_alpha)" figma:type="frame">
<g id="Dots" figma:type="frame">
<g id="Vector" figma:type="vector">
<use xlink:href="#path2_fill" transform="translate(817 514)" fill="#212121"/>
</g>
<g id="Vector" figma:type="vector">
<use xlink:href="#path2_fill" transform="translate(857 514)" fill="#212121"/>
</g>
<g id="Vector" figma:type="vector">
<use xlink:href="#path2_fill" transform="translate(837 514)" fill="#212121"/>
</g>
</g>
<g id="Braces" figma:type="frame">
<g id="Vector" figma:type="vector">
<use xlink:href="#path3_fill" transform="translate(887 374)" fill="#212121"/>
</g>
<g id="Vector" figma:type="vector">
<use xlink:href="#path4_fill" transform="translate(767 374)" fill="#212121"/>
</g>
</g>
<g id="Bulb" figma:type="frame">
<g id="Vector" figma:type="vector">
<use xlink:href="#path5_fill" transform="translate(836.998 490.917)" fill="#9D1A41"/>
</g>
<g id="Vector" figma:type="vector">
<use xlink:href="#path6_fill" transform="translate(826.997 476.575)" fill="#BC0E46"/>
</g>
<g id="Vector" figma:type="vector">
<use xlink:href="#path7_fill" transform="translate(816.997 460.633)" fill="#DD1155"/>
</g>
<g id="Vector" figma:type="vector">
<use xlink:href="#path8_fill" transform="translate(807 397.73)" fill="#DD1155"/>
</g>
</g>
</g>
</g>
</g>
<defs>
<path id="path0_fill" d="M 217 108.5C 217 168.423 168.423 217 108.5 217C 48.5771 217 0 168.423 0 108.5C 0 48.5771 48.5771 0 108.5 0C 168.423 0 217 48.5771 217 108.5Z"/>
<path id="path1_fill" d="M 0 0L 217 0L 217 217L 0 217L 0 0Z"/>
<path id="path2_fill" d="M 5 10C 7.76143 10 10 7.76143 10 5C 10 2.23858 7.76143 0 5 0C 2.23858 0 0 2.23858 0 5C 0 7.76143 2.23858 10 5 10Z"/>
<path id="path3_fill" d="M 20 41.6667L 20 15C 20 11.0218 18.4197 7.20645 15.6066 4.3934C 12.7936 1.58036 8.97826 1.18424e-14 5.00001 5.92119e-15L 0 5.92119e-15L 0 10L 5.00001 10C 6.32609 10 7.59787 10.5268 8.53555 11.4645C 9.47323 12.4022 10 13.6739 10 15L 10 41.6667C 10 48.6834 10 66.3167 18.125 75.0001C 10 83.6834 10 101.317 10 108.333L 10 135C 10 136.326 9.47323 137.598 8.53555 138.536C 7.59787 139.473 6.32609 140 5.00001 140L 0 140L 0 150L 5.00001 150C 8.97826 150 12.7936 148.42 15.6066 145.607C 18.4197 142.794 20 138.978 20 135L 20 108.333C 20 89.5334 23.3334 80.0001 30 80.0001L 30 70.0001C 23.3334 70.0001 20 60.4667 20 41.6667Z"/>
<path id="path4_fill" d="M 10 41.6667L 10 15C 10 11.0218 11.5804 7.20645 14.3934 4.3934C 17.2065 1.58036 21.0218 1.77636e-14 25 5.92119e-15L 30 5.92119e-15L 30 10L 25 10C 23.6739 10 22.4022 10.5268 21.4645 11.4645C 20.5268 12.4022 20 13.6739 20 15L 20 41.6667C 20 48.6834 20 66.3167 11.875 75.0001C 20 83.6834 20 101.317 20 108.333L 20 135C 20 136.326 20.5268 137.598 21.4645 138.536C 22.4022 139.473 23.6739 140 25 140L 30 140L 30 150L 25 150C 21.0218 150 17.2065 148.42 14.3934 145.607C 11.5804 142.794 10 138.978 10 135L 10 108.333C 10 89.5334 6.66667 80.0001 0 80.0001L 0 70.0001C 6.66667 70.0001 10 60.4667 10 41.6667Z"/>
<path id="path5_fill" d="M 0.00279282 2.68334L 0.00279282 7.68334C -0.0107922 7.8835 0.0253305 8.08391 0.107945 8.26673C 0.19056 8.44955 0.317104 8.60911 0.476306 8.7312C 0.635507 8.85328 0.822426 8.93409 1.02042 8.96645C 1.21842 8.99881 1.42134 8.98171 1.61113 8.91667L 8.39448 7.10001C 8.84609 6.95804 9.24288 6.68017 9.53072 6.30434C 9.81857 5.9285 9.98343 5.473 10.0028 5L 10.0028 2.54313e-06L 0.00279282 2.68334Z"/>
<path id="path6_fill" d="M 0.00279282 8.04168L 0.00279282 14.7084C -0.0107922 14.9085 0.0253305 15.1089 0.107945 15.2917C 0.19056 15.4746 0.317103 15.6341 0.476305 15.7562C 0.635507 15.8783 0.822426 15.9591 1.02042 15.9915C 1.21842 16.0238 1.42134 16.0067 1.61113 15.9417L 28.3945 8.76668C 28.8461 8.62471 29.2429 8.34685 29.5307 7.97102C 29.8186 7.59518 29.9834 7.13967 30.0028 6.66667L 30.0028 -3.05176e-06L 0.00279282 8.04168Z"/>
<path id="path7_fill" d="M 0.00279282 13.3667L 0.00279282 21.7C -0.0107922 21.9002 0.0253305 22.1006 0.107945 22.2834C 0.19056 22.4662 0.317103 22.6258 0.476305 22.7479C 0.635507 22.87 0.822426 22.9508 1.02042 22.9832C 1.21842 23.0155 1.42134 22.9984 1.61113 22.9334L 48.3945 10.4333C 48.8461 10.2914 49.2429 10.0135 49.5307 9.63769C 49.8186 9.26185 49.9834 8.80635 50.0028 8.33335L 50.0028 5.5949e-06L 0.00279282 13.3667Z"/>
<path id="path8_fill" d="M 70.0001 35.0033C 70.0006 29.2625 68.589 23.6096 65.8896 18.543C 63.1903 13.4764 59.2861 9.15155 54.5212 5.94963C 49.7563 2.7477 44.2769 0.767019 38.5659 0.182132C 32.855 -0.402754 27.0878 0.42612 21.7728 2.5957C 16.4577 4.76528 11.7579 8.20895 8.08758 12.6232C 4.41726 17.0375 1.88911 22.2868 0.725945 27.9086C -0.437223 33.5303 -0.199694 39.3519 1.41759 44.8602C 3.03488 50.3685 5.98227 55.3944 10 59.4949L 10 72.9366L 20 70.2533L 20 54.9866C 15.8024 51.8384 12.7017 47.4492 11.1372 42.4408C 9.57267 37.4324 9.62366 32.0587 11.2829 27.0809C 12.9422 22.1031 16.1256 17.7735 20.3823 14.7055C 24.6389 11.6375 29.753 9.98658 35 9.98658C 40.2471 9.98658 45.3612 11.6375 49.6178 14.7055C 53.8744 17.7735 57.0579 22.1031 58.7171 27.0809C 60.3764 32.0587 60.4274 37.4324 58.8629 42.4408C 57.2984 47.4492 54.1977 51.8384 50 54.9866L 50 62.1783L 60 59.5033C 66.4218 52.967 70.0139 44.1664 70.0001 35.0033Z"/>
</defs>
</svg>
