<svg width="217" height="217" viewBox="0 0 217 217" version="1.1" xmlns="http://www.w3.org/2000/svg" xmlns:xlink="http://www.w3.org/1999/xlink" xmlns:figma="http://www.figma.com/figma/ns">
<title>Sticker Circle White Green</title>
<desc>Created using Figma</desc>
<g id="Canvas" transform="translate(-978 -340)" figma:type="canvas">
<mask id="mask0_alpha" mask-type="alpha">
<path d="M 978 340L 1195 340L 1195 557L 978 557L 978 340Z" fill="#FFFFFF"/>
</mask>
<g id="Sticker Circle White Green" mask="url(#mask0_alpha)" figma:type="frame">
<mask id="mask1_alpha" mask-type="alpha">
<g id="Mask" figma:type="ellipse">
<use xlink:href="#path0_fill" transform="translate(978 340)" fill="#C4C4C4"/>
</g>
</mask>
<g id="Background" mask="url(#mask1_alpha)" figma:type="rounded-rectangle">
<use xlink:href="#path1_fill" transform="translate(978 340)" fill="#FFFFFF"/>
</g>
<g id="Logo" mask="url(#mask1_alpha)" figma:type="frame">
<g id="Dots" figma:type="frame">
<g id="Vector" figma:type="vector">
<use xlink:href="#path2_fill" transform="translate(1062 514)" fill="#212121"/>
</g>
<g id="Vector" figma:type="vector">
<use xlink:href="#path2_fill" transform="translate(1102 514)" fill="#212121"/>
</g>
<g id="Vector" figma:type="vector">
<use xlink:href="#path2_fill" transform="translate(1082 514)" fill="#212121"/>
</g>
</g>
<g id="Braces" figma:type="frame">
<g id="Vector" figma:type="vector">
<use xlink:href="#path3_fill" transform="translate(1132 374)" fill="#212121"/>
</g>
<g id="Vector" figma:type="vector">
<use xlink:href="#path4_fill" transform="translate(1012 374)" fill="#212121"/>
</g>
</g>
<g id="Bulb" figma:type="frame">
<g id="Vector" figma:type="vector">
<use xlink:href="#path5_fill" transform="translate(1081.95 491.385)" fill="#19A111"/>
</g>
<g id="Vector" figma:type="vector">
<use xlink:href="#path6_fill" transform="translate(1071.84 476.947)" fill="#13BA02"/>
</g>
<g id="Vector" figma:type="vector">
<use xlink:href="#path7_fill" transform="translate(1061.74 460.898)" fill="#16D302"/>
</g>
<g id="Vector" figma:type="vector">
<use xlink:href="#path8_fill" transform="translate(1051.64 397.571)" fill="#16D302"/>
</g>
</g>
</g>
</g>
</g>
<defs>
<path id="path0_fill" d="M 217 108.5C 217 168.423 168.423 217 108.5 217C 48.5771 217 0 168.423 0 108.5C 0 48.5771 48.5771 0 108.5 0C 168.423 0 217 48.5771 217 108.5Z"/>
<path id="path1_fill" d="M 0 0L 217 0L 217 217L 0 217L 0 0Z"/>
<path id="path2_fill" d="M 4.99999 9.99999C 7.76141 9.99999 9.99999 7.76141 9.99999 4.99999C 9.99999 2.23857 7.76141 0 4.99999 0C 2.23857 0 0 2.23857 0 4.99999C 0 7.76141 2.23857 9.99999 4.99999 9.99999Z"/>
<path id="path3_fill" d="M 20 41.6666L 20 15C 20 11.0217 18.4196 7.20644 15.6066 4.39339C 12.7935 1.58035 8.97824 1.18424e-14 5 5.92118e-15L 0 5.92118e-15L 0 9.99999L 5 9.99999C 6.32608 9.99999 7.59785 10.5268 8.53553 11.4645C 9.47321 12.4021 9.99999 13.6739 9.99999 15L 9.99999 41.6666C 9.99999 48.6833 9.99999 66.3166 18.125 74.9999C 9.99999 83.6832 9.99999 101.317 9.99999 108.333L 9.99999 135C 9.99999 136.326 9.47321 137.598 8.53553 138.535C 7.59785 139.473 6.32608 140 5 140L 0 140L 0 150L 5 150C 8.97824 150 12.7935 148.419 15.6066 145.606C 18.4196 142.793 20 138.978 20 135L 20 108.333C 20 89.5332 23.3333 79.9999 30 79.9999L 30 69.9999C 23.3333 69.9999 20 60.4666 20 41.6666Z"/>
<path id="path4_fill" d="M 9.99999 41.6666L 9.99999 15C 9.99999 11.0217 11.5803 7.20644 14.3934 4.39339C 17.2064 1.58035 21.0217 1.77635e-14 25 5.92118e-15L 30 5.92118e-15L 30 9.99999L 25 9.99999C 23.6739 9.99999 22.4021 10.5268 21.4644 11.4645C 20.5268 12.4021 20 13.6739 20 15L 20 41.6666C 20 48.6833 20 66.3166 11.875 74.9999C 20 83.6832 20 101.317 20 108.333L 20 135C 20 136.326 20.5268 137.598 21.4644 138.535C 22.4021 139.473 23.6739 140 25 140L 30 140L 30 150L 25 150C 21.0217 150 17.2064 148.419 14.3934 145.606C 11.5803 142.793 9.99999 138.978 9.99999 135L 9.99999 108.333C 9.99999 89.5332 6.66666 79.9999 0 79.9999L 0 69.9999C 6.66666 69.9999 9.99999 60.4666 9.99999 41.6666Z"/>
<path id="path5_fill" d="M 0.00282131 2.70141L 0.00282131 7.73507C -0.0109023 7.93658 0.0255889 8.13834 0.109046 8.3224C 0.192503 8.50645 0.320338 8.66709 0.481164 8.78999C 0.64199 8.91289 0.830815 8.99425 1.03083 9.02683C 1.23085 9.0594 1.43584 9.04219 1.62756 8.97671L 8.4801 7.14782C 8.93632 7.00489 9.33716 6.72516 9.62794 6.34679C 9.91872 5.96842 10.0853 5.50986 10.1048 5.03367L 10.1048 2.56026e-06L 0.00282131 2.70141Z"/>
<path id="path6_fill" d="M 0.00282131 8.09582L 0.00282131 14.8074C -0.0109023 15.0089 0.0255889 15.2107 0.109046 15.3947C 0.192503 15.5788 0.320338 15.7394 0.481164 15.8623C 0.64199 15.9852 0.830815 16.0666 1.03083 16.0991C 1.23085 16.1317 1.43584 16.1145 1.62756 16.049L 28.6841 8.8257C 29.1403 8.68278 29.5412 8.40305 29.832 8.02469C 30.1227 7.64632 30.2893 7.18774 30.3089 6.71156L 30.3089 -3.07231e-06L 0.00282131 8.09582Z"/>
<path id="path7_fill" d="M 0.00282131 13.4567L 0.00282131 21.8461C -0.0109023 22.0476 0.0255889 22.2494 0.109046 22.4335C 0.192503 22.6175 0.320338 22.7781 0.481164 22.901C 0.64199 23.0239 0.830815 23.1053 1.03083 23.1379C 1.23085 23.1705 1.43584 23.1532 1.62756 23.0878L 48.8882 10.5036C 49.3444 10.3607 49.7452 10.0809 50.036 9.70257C 50.3268 9.32421 50.4933 8.86564 50.5129 8.38946L 50.5129 5.63257e-06L 0.00282131 13.4567Z"/>
<path id="path8_fill" d="M 70.7141 35.2389C 70.7146 29.4595 69.2886 23.7686 66.5618 18.6679C 63.8349 13.5671 59.8909 9.21317 55.0773 5.98969C 50.2638 2.7662 44.7285 0.772184 38.9593 0.183359C 33.1901 -0.405466 27.3641 0.428989 21.9949 2.61318C 16.6256 4.79736 11.8778 8.26422 8.17008 12.7082C 4.46232 17.1522 1.90838 22.4369 0.73335 28.0965C -0.441683 33.7561 -0.201731 39.6168 1.43206 45.1622C 3.06584 50.7076 6.0433 55.7673 10.102 59.8955L 10.102 73.4277L 20.204 70.7263L 20.204 55.3568C 15.9636 52.1874 12.8312 47.7687 11.2508 42.7266C 9.67031 37.6844 9.72182 32.2746 11.398 27.2632C 13.0742 22.2519 16.2901 17.8932 20.5902 14.8045C 24.8902 11.7159 30.0565 10.0538 35.357 10.0538C 40.6576 10.0538 45.8239 11.7159 50.1239 14.8045C 54.424 17.8932 57.6399 22.2519 59.3161 27.2632C 60.9923 32.2746 61.0438 37.6844 59.4633 42.7266C 57.8829 47.7687 54.7505 52.1874 50.5101 55.3568L 50.5101 62.5969L 60.6121 59.9039C 67.0994 53.3236 70.7281 44.4637 70.7141 35.2389Z"/>
</defs>
</svg>
