<svg width="217" height="217" viewBox="0 0 217 217" version="1.1" xmlns="http://www.w3.org/2000/svg" xmlns:xlink="http://www.w3.org/1999/xlink" xmlns:figma="http://www.figma.com/figma/ns">
<title>Sticker Circle White Orange</title>
<desc>Created using Figma</desc>
<g id="Canvas" transform="translate(-1713 -340)" figma:type="canvas">
<mask id="mask0_alpha" mask-type="alpha">
<path d="M 1713 340L 1930 340L 1930 557L 1713 557L 1713 340Z" fill="#FFFFFF"/>
</mask>
<g id="Sticker Circle White Orange" mask="url(#mask0_alpha)" figma:type="frame">
<mask id="mask1_alpha" mask-type="alpha">
<g id="Mask" figma:type="ellipse">
<use xlink:href="#path0_fill" transform="translate(1713 340)" fill="#C4C4C4"/>
</g>
</mask>
<g id="Background" mask="url(#mask1_alpha)" figma:type="rounded-rectangle">
<use xlink:href="#path1_fill" transform="translate(1713 340)" fill="#FFFFFF"/>
</g>
<g id="Logo" mask="url(#mask1_alpha)" figma:type="frame">
<g id="Dots" figma:type="frame">
<g id="Vector" figma:type="vector">
<use xlink:href="#path2_fill" transform="translate(1797 514)" fill="#212121"/>
</g>
<g id="Vector" figma:type="vector">
<use xlink:href="#path2_fill" transform="translate(1837 514)" fill="#212121"/>
</g>
<g id="Vector" figma:type="vector">
<use xlink:href="#path2_fill" transform="translate(1817 514)" fill="#212121"/>
</g>
</g>
<g id="Braces" figma:type="frame">
<g id="Vector" figma:type="vector">
<use xlink:href="#path3_fill" transform="translate(1867 374)" fill="#212121"/>
</g>
<g id="Vector" figma:type="vector">
<use xlink:href="#path4_fill" transform="translate(1747 374)" fill="#212121"/>
</g>
</g>
<g id="Bulb" figma:type="frame">
<g id="Vector" figma:type="vector">
<use xlink:href="#path5_fill" transform="translate(1817 491.032)" fill="#D13E0E"/>
</g>
<g id="Vector" figma:type="vector">
<use xlink:href="#path6_fill" transform="translate(1807 476.714)" fill="#E53A0C"/>
</g>
<g id="Vector" figma:type="vector">
<use xlink:href="#path7_fill" transform="translate(1797 460.799)" fill="#FB5012"/>
</g>
<g id="Vector" figma:type="vector">
<use xlink:href="#path8_fill" transform="translate(1787 398)" fill="#FB5012"/>
</g>
</g>
</g>
</g>
</g>
<defs>
<path id="path0_fill" d="M 217 108.5C 217 168.423 168.423 217 108.5 217C 48.5771 217 0 168.423 0 108.5C 0 48.5771 48.5771 0 108.5 0C 168.423 0 217 48.5771 217 108.5Z"/>
<path id="path1_fill" d="M 0 0L 217 0L 217 217L 0 217L 0 0Z"/>
<path id="path2_fill" d="M 4.99999 9.99999C 7.76141 9.99999 9.99999 7.76141 9.99999 4.99999C 9.99999 2.23857 7.76141 0 4.99999 0C 2.23857 0 0 2.23857 0 4.99999C 0 7.76141 2.23857 9.99999 4.99999 9.99999Z"/>
<path id="path3_fill" d="M 20 41.6666L 20 15C 20 11.0217 18.4196 7.20644 15.6066 4.39339C 12.7935 1.58035 8.97824 1.18424e-14 5 5.92118e-15L 0 5.92118e-15L 0 9.99999L 5 9.99999C 6.32608 9.99999 7.59785 10.5268 8.53553 11.4645C 9.47321 12.4021 9.99999 13.6739 9.99999 15L 9.99999 41.6666C 9.99999 48.6833 9.99999 66.3166 18.125 74.9999C 9.99999 83.6832 9.99999 101.317 9.99999 108.333L 9.99999 135C 9.99999 136.326 9.47321 137.598 8.53553 138.535C 7.59785 139.473 6.32608 140 5 140L 0 140L 0 150L 5 150C 8.97824 150 12.7935 148.419 15.6066 145.606C 18.4196 142.793 20 138.978 20 135L 20 108.333C 20 89.5332 23.3333 79.9999 30 79.9999L 30 69.9999C 23.3333 69.9999 20 60.4666 20 41.6666Z"/>
<path id="path4_fill" d="M 9.99999 41.6666L 9.99999 15C 9.99999 11.0217 11.5803 7.20644 14.3934 4.39339C 17.2064 1.58035 21.0217 1.77635e-14 25 5.92118e-15L 30 5.92118e-15L 30 9.99999L 25 9.99999C 23.6739 9.99999 22.4021 10.5268 21.4644 11.4645C 20.5268 12.4021 20 13.6739 20 15L 20 41.6666C 20 48.6833 20 66.3166 11.875 74.9999C 20 83.6832 20 101.317 20 108.333L 20 135C 20 136.326 20.5268 137.598 21.4644 138.535C 22.4021 139.473 23.6739 140 25 140L 30 140L 30 150L 25 150C 21.0217 150 17.2064 148.419 14.3934 145.606C 11.5803 142.793 9.99999 138.978 9.99999 135L 9.99999 108.333C 9.99999 89.5332 6.66666 79.9999 0 79.9999L 0 69.9999C 6.66666 69.9999 9.99999 60.4666 9.99999 41.6666Z"/>
<path id="path5_fill" d="M 0.00279282 2.6789L 0.00279282 7.67063C -0.0107922 7.87046 0.0253304 8.07054 0.107945 8.25306C 0.190559 8.43558 0.317103 8.59488 0.476305 8.71676C 0.635506 8.83864 0.822425 8.91932 1.02042 8.95162C 1.21842 8.98393 1.42134 8.96686 1.61113 8.90192L 8.39446 7.08827C 8.84607 6.94654 9.24286 6.66913 9.53071 6.29391C 9.81855 5.9187 9.98341 5.46395 10.0028 4.99174L 10.0028 2.53893e-06L 0.00279282 2.6789Z"/>
<path id="path6_fill" d="M 0.00279282 8.02837L 0.00279282 14.684C -0.0107922 14.8838 0.0253304 15.0839 0.107945 15.2664C 0.190559 15.449 0.317103 15.6083 0.476305 15.7301C 0.635506 15.852 0.822425 15.9327 1.02042 15.965C 1.21841 15.9973 1.42134 15.9802 1.61113 15.9153L 28.3945 8.75217C 28.8461 8.61044 29.2429 8.33305 29.5307 7.95783C 29.8185 7.58262 29.9834 7.12786 30.0028 6.65564L 30.0028 -3.04671e-06L 0.00279282 8.02837Z"/>
<path id="path7_fill" d="M 0.00279282 13.3446L 0.00279282 21.6641C -0.0107922 21.864 0.0253304 22.064 0.107945 22.2466C 0.190559 22.4291 0.317103 22.5884 0.476305 22.7102C 0.635506 22.8321 0.822425 22.9128 1.02042 22.9451C 1.21841 22.9774 1.42134 22.9603 1.61113 22.8954L 48.3944 10.4161C 48.8461 10.2743 49.2428 9.99695 49.5307 9.62174C 49.8185 9.24652 49.9834 8.79178 50.0028 8.31956L 50.0028 5.58564e-06L 0.00279282 13.3446Z"/>
<path id="path8_fill" d="M 70 34.9454C 70.0005 29.214 68.5889 23.5706 65.8896 18.5123C 63.1902 13.4541 59.2861 9.13641 54.5211 5.93979C 49.7562 2.74316 44.2768 0.765751 38.5659 0.181831C 32.8549 -0.402088 27.0878 0.425415 21.7727 2.59141C 16.4577 4.7574 11.7579 8.19537 8.08757 12.6023C 4.41725 17.0093 1.88911 22.2499 0.725944 27.8624C -0.437222 33.4748 -0.199693 39.2868 1.41759 44.7859C 3.03488 50.2851 5.98227 55.3027 10 59.3965L 10 72.816L 20 70.1371L 20 54.8957C 15.8023 51.7526 12.7017 47.3707 11.1372 42.3706C 9.57265 37.3705 9.62364 32.0057 11.2829 27.0361C 12.9422 22.0665 16.1256 17.7441 20.3822 14.6812C 24.6389 11.6183 29.7529 9.97006 35 9.97006C 40.247 9.97006 45.3611 11.6183 49.6177 14.6812C 53.8744 17.7441 57.0578 22.0665 58.717 27.0361C 60.3763 32.0057 60.4273 37.3705 58.8628 42.3706C 57.2983 47.3707 54.1976 51.7526 50 54.8957L 50 62.0754L 60 59.4049C 66.4217 52.8794 70.0138 44.0933 70 34.9454Z"/>
</defs>
</svg>
