<svg xmlns="http://www.w3.org/2000/svg" viewBox="0 0 492 1436"><defs><style>.cls-1{fill:#333;}.cls-2{fill:none;}.cls-3{fill:#ec7a04;}.cls-4{fill:#f58500;}.cls-5{fill:#ff9700;}.cls-6{fill:#d13e0e;}.cls-7{fill:#e53a0c;}.cls-8{fill:#fb5012;}.cls-9{fill:#9d1a41;}.cls-10{fill:#bc0e46;}.cls-11{fill:#d15;}.cls-12{fill:#0aa3a3;}.cls-13{fill:#01bebb;}.cls-14{fill:#01d7d4;}.cls-15{fill:#19a111;}.cls-16{fill:#13ba02;}.cls-17{fill:#16d302;}.cls-18{fill:#fafafa;}.cls-19{fill:#fff;}</style></defs><title>heinrich_software_logo-01</title><g id="bg"><rect class="cls-1" x="256" y="20" width="216" height="1396"/></g><g id="Light"><rect class="cls-2" x="20" y="20" width="216" height="216"/><circle class="cls-1" cx="104" cy="212" r="6"/><circle class="cls-1" cx="152" cy="212" r="6"/><circle class="cls-1" cx="128" cy="212" r="6"/><path class="cls-3" d="M122,181.52v6a1.46,1.46,0,0,0,1.93,1.48l8.14-2.18a2.76,2.76,0,0,0,1.93-2.52v-6Z"/><path class="cls-4" d="M110,170.74v8a1.46,1.46,0,0,0,1.93,1.48l32.14-8.61a2.76,2.76,0,0,0,1.93-2.52v-8Z"/><path class="cls-5" d="M98,158v10a1.46,1.46,0,0,0,1.93,1.48l56.14-15a2.76,2.76,0,0,0,1.93-2.52v-10Z"/><path class="cls-1" d="M206,88V56a18,18,0,0,0-18-18h-6V50h6a6,6,0,0,1,6,6V88c0,8.42,0,29.58,9.75,40h0C194,138.42,194,159.58,194,168v32a6,6,0,0,1-6,6h-6v12h6a18,18,0,0,0,18-18V168c0-22.56,4-34,12-34V122C210,122,206,110.56,206,88Z"/><path class="cls-1" d="M50,88V56A18,18,0,0,1,68,38h6V50H68a6,6,0,0,0-6,6V88c0,8.42,0,29.58-9.75,40h0C62,138.42,62,159.58,62,168v32a6,6,0,0,0,6,6h6v12H68a18,18,0,0,1-18-18V168c0-22.56-4-34-12-34V122C46,122,50,110.56,50,88Z"/><path class="cls-5" d="M170,108.48a42,42,0,1,0-72,29.39h0V154l12-3.22V132.46a30,30,0,1,1,36,0v8.63l12-3.21h0A41.86,41.86,0,0,0,170,108.48Z"/><rect class="cls-2" x="20" y="256" width="216" height="216"/><circle class="cls-1" cx="104" cy="448" r="6"/><circle class="cls-1" cx="152" cy="448" r="6"/><circle class="cls-1" cx="128" cy="448" r="6"/><path class="cls-6" d="M122,417.52v6a1.46,1.46,0,0,0,1.93,1.48l8.14-2.18a2.76,2.76,0,0,0,1.93-2.52v-6Z"/><path class="cls-7" d="M110,406.74v8a1.46,1.46,0,0,0,1.93,1.48l32.14-8.61a2.76,2.76,0,0,0,1.93-2.52v-8Z"/><path class="cls-8" d="M98,394v10a1.46,1.46,0,0,0,1.93,1.48l56.14-15a2.76,2.76,0,0,0,1.93-2.52v-10Z"/><path class="cls-1" d="M206,324V292a18,18,0,0,0-18-18h-6v12h6a6,6,0,0,1,6,6v32c0,8.42,0,29.58,9.75,40h0C194,374.42,194,395.58,194,404v32a6,6,0,0,1-6,6h-6v12h6a18,18,0,0,0,18-18V404c0-22.56,4-34,12-34V358C210,358,206,346.56,206,324Z"/><path class="cls-1" d="M50,324V292a18,18,0,0,1,18-18h6v12H68a6,6,0,0,0-6,6v32c0,8.42,0,29.58-9.75,40h0C62,374.42,62,395.58,62,404v32a6,6,0,0,0,6,6h6v12H68a18,18,0,0,1-18-18V404c0-22.56-4-34-12-34V358C46,358,50,346.56,50,324Z"/><path class="cls-8" d="M170,344.48a42,42,0,1,0-72,29.39h0V390l12-3.22V368.46a30,30,0,1,1,36,0v8.63l12-3.21h0A41.86,41.86,0,0,0,170,344.48Z"/><rect class="cls-2" x="20" y="492" width="216" height="216"/><circle class="cls-1" cx="104" cy="684" r="6"/><circle class="cls-1" cx="152" cy="684" r="6"/><circle class="cls-1" cx="128" cy="684" r="6"/><path class="cls-9" d="M122,653.52v6a1.46,1.46,0,0,0,1.93,1.48l8.14-2.18a2.76,2.76,0,0,0,1.93-2.52v-6Z"/><path class="cls-10" d="M110,642.74v8a1.46,1.46,0,0,0,1.93,1.48l32.14-8.61a2.76,2.76,0,0,0,1.93-2.52v-8Z"/><path class="cls-11" d="M98,630v10a1.46,1.46,0,0,0,1.93,1.48l56.14-15a2.76,2.76,0,0,0,1.93-2.52v-10Z"/><path class="cls-1" d="M206,560V528a18,18,0,0,0-18-18h-6v12h6a6,6,0,0,1,6,6v32c0,8.42,0,29.58,9.75,40h0C194,610.42,194,631.58,194,640v32a6,6,0,0,1-6,6h-6v12h6a18,18,0,0,0,18-18V640c0-22.56,4-34,12-34V594C210,594,206,582.56,206,560Z"/><path class="cls-1" d="M50,560V528a18,18,0,0,1,18-18h6v12H68a6,6,0,0,0-6,6v32c0,8.42,0,29.58-9.75,40h0C62,610.42,62,631.58,62,640v32a6,6,0,0,0,6,6h6v12H68a18,18,0,0,1-18-18V640c0-22.56-4-34-12-34V594C46,594,50,582.56,50,560Z"/><path class="cls-11" d="M170,580.48a42,42,0,1,0-72,29.39h0V626l12-3.22V604.46a30,30,0,1,1,36,0v8.63l12-3.21h0A41.86,41.86,0,0,0,170,580.48Z"/><rect class="cls-2" x="20" y="728" width="216" height="216"/><circle class="cls-1" cx="104" cy="920" r="6"/><circle class="cls-1" cx="152" cy="920" r="6"/><circle class="cls-1" cx="128" cy="920" r="6"/><path class="cls-12" d="M122,889.52v6a1.46,1.46,0,0,0,1.93,1.48l8.14-2.18a2.76,2.76,0,0,0,1.93-2.52v-6Z"/><path class="cls-13" d="M110,878.74v8a1.46,1.46,0,0,0,1.93,1.48l32.14-8.61a2.76,2.76,0,0,0,1.93-2.52v-8Z"/><path class="cls-14" d="M98,866v10a1.46,1.46,0,0,0,1.93,1.48l56.14-15a2.76,2.76,0,0,0,1.93-2.52v-10Z"/><path class="cls-1" d="M206,796V764a18,18,0,0,0-18-18h-6v12h6a6,6,0,0,1,6,6v32c0,8.42,0,29.58,9.75,40h0C194,846.42,194,867.58,194,876v32a6,6,0,0,1-6,6h-6v12h6a18,18,0,0,0,18-18V876c0-22.56,4-34,12-34V830C210,830,206,818.56,206,796Z"/><path class="cls-1" d="M50,796V764a18,18,0,0,1,18-18h6v12H68a6,6,0,0,0-6,6v32c0,8.42,0,29.58-9.75,40h0C62,846.42,62,867.58,62,876v32a6,6,0,0,0,6,6h6v12H68a18,18,0,0,1-18-18V876c0-22.56-4-34-12-34V830C46,830,50,818.56,50,796Z"/><path class="cls-14" d="M170,816.48a42,42,0,1,0-72,29.39h0V862l12-3.22V840.46a30,30,0,1,1,36,0v8.63l12-3.21h0A41.86,41.86,0,0,0,170,816.48Z"/><rect class="cls-2" x="20" y="964" width="216" height="216"/><circle class="cls-1" cx="104" cy="1156" r="6"/><circle class="cls-1" cx="152" cy="1156" r="6"/><circle class="cls-1" cx="128" cy="1156" r="6"/><path class="cls-15" d="M122,1125.52v6a1.46,1.46,0,0,0,1.93,1.48l8.14-2.18a2.76,2.76,0,0,0,1.93-2.52v-6Z"/><path class="cls-16" d="M110,1114.74v8a1.46,1.46,0,0,0,1.93,1.48l32.14-8.61a2.76,2.76,0,0,0,1.93-2.52v-8Z"/><path class="cls-17" d="M98,1102v10a1.46,1.46,0,0,0,1.93,1.48l56.14-15a2.76,2.76,0,0,0,1.93-2.52v-10Z"/><path class="cls-1" d="M206,1032v-32a18,18,0,0,0-18-18h-6v12h6a6,6,0,0,1,6,6v32c0,8.42,0,29.58,9.75,40h0c-9.74,10.42-9.75,31.58-9.75,40v32a6,6,0,0,1-6,6h-6v12h6a18,18,0,0,0,18-18v-32c0-22.56,4-34,12-34v-12C210,1066,206,1054.56,206,1032Z"/><path class="cls-1" d="M50,1032v-32a18,18,0,0,1,18-18h6v12H68a6,6,0,0,0-6,6v32c0,8.42,0,29.58-9.75,40h0C62,1082.42,62,1103.58,62,1112v32a6,6,0,0,0,6,6h6v12H68a18,18,0,0,1-18-18v-32c0-22.56-4-34-12-34v-12C46,1066,50,1054.56,50,1032Z"/><path class="cls-17" d="M170,1052.48a42,42,0,1,0-72,29.39h0V1098l12-3.22v-18.28a30,30,0,1,1,36,0v8.63l12-3.21h0A41.86,41.86,0,0,0,170,1052.48Z"/></g><g id="Dark"><rect class="cls-2" x="256" y="20" width="216" height="216"/><circle class="cls-18" cx="340" cy="212" r="6"/><circle class="cls-18" cx="388" cy="212" r="6"/><circle class="cls-18" cx="364" cy="212" r="6"/><path class="cls-3" d="M358,181.52v6a1.46,1.46,0,0,0,1.93,1.48l8.14-2.18a2.76,2.76,0,0,0,1.93-2.52v-6Z"/><path class="cls-4" d="M346,170.74v8a1.46,1.46,0,0,0,1.93,1.48l32.14-8.61a2.76,2.76,0,0,0,1.93-2.52v-8Z"/><path class="cls-5" d="M334,158v10a1.46,1.46,0,0,0,1.93,1.48l56.14-15a2.76,2.76,0,0,0,1.93-2.52v-10Z"/><path class="cls-18" d="M442,88V56a18,18,0,0,0-18-18h-6V50h6a6,6,0,0,1,6,6V88c0,8.42,0,29.58,9.75,40h0C430,138.42,430,159.58,430,168v32a6,6,0,0,1-6,6h-6v12h6a18,18,0,0,0,18-18V168c0-22.56,4-34,12-34V122C446,122,442,110.56,442,88Z"/><path class="cls-18" d="M286,88V56a18,18,0,0,1,18-18h6V50h-6a6,6,0,0,0-6,6V88c0,8.42,0,29.58-9.75,40h0C298,138.42,298,159.58,298,168v32a6,6,0,0,0,6,6h6v12h-6a18,18,0,0,1-18-18V168c0-22.56-4-34-12-34V122C282,122,286,110.56,286,88Z"/><path class="cls-5" d="M406,108.48a42,42,0,1,0-72,29.39h0V154l12-3.22V132.46a30,30,0,1,1,36,0v8.63l12-3.21h0A41.86,41.86,0,0,0,406,108.48Z"/><rect class="cls-2" x="256" y="256" width="216" height="216"/><circle class="cls-18" cx="340" cy="448" r="6"/><circle class="cls-18" cx="388" cy="448" r="6"/><circle class="cls-18" cx="364" cy="448" r="6"/><path class="cls-6" d="M358,417.52v6a1.46,1.46,0,0,0,1.93,1.48l8.14-2.18a2.76,2.76,0,0,0,1.93-2.52v-6Z"/><path class="cls-7" d="M346,406.74v8a1.46,1.46,0,0,0,1.93,1.48l32.14-8.61a2.76,2.76,0,0,0,1.93-2.52v-8Z"/><path class="cls-8" d="M334,394v10a1.46,1.46,0,0,0,1.93,1.48l56.14-15a2.76,2.76,0,0,0,1.93-2.52v-10Z"/><path class="cls-18" d="M442,324V292a18,18,0,0,0-18-18h-6v12h6a6,6,0,0,1,6,6v32c0,8.42,0,29.58,9.75,40h0C430,374.42,430,395.58,430,404v32a6,6,0,0,1-6,6h-6v12h6a18,18,0,0,0,18-18V404c0-22.56,4-34,12-34V358C446,358,442,346.56,442,324Z"/><path class="cls-18" d="M286,324V292a18,18,0,0,1,18-18h6v12h-6a6,6,0,0,0-6,6v32c0,8.42,0,29.58-9.75,40h0C298,374.42,298,395.58,298,404v32a6,6,0,0,0,6,6h6v12h-6a18,18,0,0,1-18-18V404c0-22.56-4-34-12-34V358C282,358,286,346.56,286,324Z"/><path class="cls-8" d="M406,344.48a42,42,0,1,0-72,29.39h0V390l12-3.22V368.46a30,30,0,1,1,36,0v8.63l12-3.21h0A41.86,41.86,0,0,0,406,344.48Z"/><rect class="cls-2" x="256" y="492" width="216" height="216"/><circle class="cls-18" cx="340" cy="684" r="6"/><circle class="cls-18" cx="388" cy="684" r="6"/><circle class="cls-18" cx="364" cy="684" r="6"/><path class="cls-9" d="M358,653.52v6a1.46,1.46,0,0,0,1.93,1.48l8.14-2.18a2.76,2.76,0,0,0,1.93-2.52v-6Z"/><path class="cls-10" d="M346,642.74v8a1.46,1.46,0,0,0,1.93,1.48l32.14-8.61a2.76,2.76,0,0,0,1.93-2.52v-8Z"/><path class="cls-11" d="M334,630v10a1.46,1.46,0,0,0,1.93,1.48l56.14-15a2.76,2.76,0,0,0,1.93-2.52v-10Z"/><path class="cls-18" d="M442,560V528a18,18,0,0,0-18-18h-6v12h6a6,6,0,0,1,6,6v32c0,8.42,0,29.58,9.75,40h0C430,610.42,430,631.58,430,640v32a6,6,0,0,1-6,6h-6v12h6a18,18,0,0,0,18-18V640c0-22.56,4-34,12-34V594C446,594,442,582.56,442,560Z"/><path class="cls-18" d="M286,560V528a18,18,0,0,1,18-18h6v12h-6a6,6,0,0,0-6,6v32c0,8.42,0,29.58-9.75,40h0C298,610.42,298,631.58,298,640v32a6,6,0,0,0,6,6h6v12h-6a18,18,0,0,1-18-18V640c0-22.56-4-34-12-34V594C282,594,286,582.56,286,560Z"/><path class="cls-11" d="M406,580.48a42,42,0,1,0-72,29.39h0V626l12-3.22V604.46a30,30,0,1,1,36,0v8.63l12-3.21h0A41.86,41.86,0,0,0,406,580.48Z"/><rect class="cls-2" x="256" y="728" width="216" height="216"/><circle class="cls-18" cx="340" cy="920" r="6"/><circle class="cls-18" cx="388" cy="920" r="6"/><circle class="cls-18" cx="364" cy="920" r="6"/><path class="cls-12" d="M358,889.52v6a1.46,1.46,0,0,0,1.93,1.48l8.14-2.18a2.76,2.76,0,0,0,1.93-2.52v-6Z"/><path class="cls-13" d="M346,878.74v8a1.46,1.46,0,0,0,1.93,1.48l32.14-8.61a2.76,2.76,0,0,0,1.93-2.52v-8Z"/><path class="cls-14" d="M334,866v10a1.46,1.46,0,0,0,1.93,1.48l56.14-15a2.76,2.76,0,0,0,1.93-2.52v-10Z"/><path class="cls-18" d="M442,796V764a18,18,0,0,0-18-18h-6v12h6a6,6,0,0,1,6,6v32c0,8.42,0,29.58,9.75,40h0C430,846.42,430,867.58,430,876v32a6,6,0,0,1-6,6h-6v12h6a18,18,0,0,0,18-18V876c0-22.56,4-34,12-34V830C446,830,442,818.56,442,796Z"/><path class="cls-18" d="M286,796V764a18,18,0,0,1,18-18h6v12h-6a6,6,0,0,0-6,6v32c0,8.42,0,29.58-9.75,40h0C298,846.42,298,867.58,298,876v32a6,6,0,0,0,6,6h6v12h-6a18,18,0,0,1-18-18V876c0-22.56-4-34-12-34V830C282,830,286,818.56,286,796Z"/><path class="cls-14" d="M406,816.48a42,42,0,1,0-72,29.39h0V862l12-3.22V840.46a30,30,0,1,1,36,0v8.63l12-3.21h0A41.86,41.86,0,0,0,406,816.48Z"/><rect class="cls-2" x="256" y="964" width="216" height="216"/><circle class="cls-18" cx="340" cy="1156" r="6"/><circle class="cls-18" cx="388" cy="1156" r="6"/><circle class="cls-18" cx="364" cy="1156" r="6"/><path class="cls-15" d="M358,1125.52v6a1.46,1.46,0,0,0,1.93,1.48l8.14-2.18a2.76,2.76,0,0,0,1.93-2.52v-6Z"/><path class="cls-16" d="M346,1114.74v8a1.46,1.46,0,0,0,1.93,1.48l32.14-8.61a2.76,2.76,0,0,0,1.93-2.52v-8Z"/><path class="cls-17" d="M334,1102v10a1.46,1.46,0,0,0,1.93,1.48l56.14-15a2.76,2.76,0,0,0,1.93-2.52v-10Z"/><path class="cls-18" d="M442,1032v-32a18,18,0,0,0-18-18h-6v12h6a6,6,0,0,1,6,6v32c0,8.42,0,29.58,9.75,40h0c-9.74,10.42-9.75,31.58-9.75,40v32a6,6,0,0,1-6,6h-6v12h6a18,18,0,0,0,18-18v-32c0-22.56,4-34,12-34v-12C446,1066,442,1054.56,442,1032Z"/><path class="cls-18" d="M286,1032v-32a18,18,0,0,1,18-18h6v12h-6a6,6,0,0,0-6,6v32c0,8.42,0,29.58-9.75,40h0c9.74,10.42,9.75,31.58,9.75,40v32a6,6,0,0,0,6,6h6v12h-6a18,18,0,0,1-18-18v-32c0-22.56-4-34-12-34v-12C282,1066,286,1054.56,286,1032Z"/><path class="cls-17" d="M406,1052.48a42,42,0,1,0-72,29.39h0V1098l12-3.22v-18.28a30,30,0,1,1,36,0v8.63l12-3.21h0A41.86,41.86,0,0,0,406,1052.48Z"/><rect class="cls-2" x="20" y="1200" width="216" height="216"/><circle cx="104" cy="1392" r="6"/><circle cx="152" cy="1392" r="6"/><circle cx="128" cy="1392" r="6"/><path d="M122,1361.52v6a1.46,1.46,0,0,0,1.93,1.48l8.14-2.18a2.76,2.76,0,0,0,1.93-2.52v-6Z"/><path d="M110,1350.74v8a1.46,1.46,0,0,0,1.93,1.48l32.14-8.61a2.76,2.76,0,0,0,1.93-2.52v-8Z"/><path d="M98,1338v10a1.46,1.46,0,0,0,1.93,1.48l56.14-15a2.76,2.76,0,0,0,1.93-2.52v-10Z"/><path d="M206,1268v-32a18,18,0,0,0-18-18h-6v12h6a6,6,0,0,1,6,6v32c0,8.42,0,29.58,9.75,40h0c-9.74,10.42-9.75,31.58-9.75,40v32a6,6,0,0,1-6,6h-6v12h6a18,18,0,0,0,18-18v-32c0-22.56,4-34,12-34v-12C210,1302,206,1290.56,206,1268Z"/><path d="M50,1268v-32a18,18,0,0,1,18-18h6v12H68a6,6,0,0,0-6,6v32c0,8.42,0,29.58-9.75,40h0C62,1318.42,62,1339.58,62,1348v32a6,6,0,0,0,6,6h6v12H68a18,18,0,0,1-18-18v-32c0-22.56-4-34-12-34v-12C46,1302,50,1290.56,50,1268Z"/><path d="M170,1288.48a42,42,0,1,0-72,29.39h0V1334l12-3.22v-18.28a30,30,0,1,1,36,0v8.63l12-3.21h0A41.86,41.86,0,0,0,170,1288.48Z"/><rect class="cls-2" x="256" y="1200" width="216" height="216"/><circle class="cls-19" cx="340" cy="1392" r="6"/><circle class="cls-19" cx="388" cy="1392" r="6"/><circle class="cls-19" cx="364" cy="1392" r="6"/><path class="cls-19" d="M358,1361.52v6a1.46,1.46,0,0,0,1.93,1.48l8.14-2.18a2.76,2.76,0,0,0,1.93-2.52v-6Z"/><path class="cls-19" d="M346,1350.74v8a1.46,1.46,0,0,0,1.93,1.48l32.14-8.61a2.76,2.76,0,0,0,1.93-2.52v-8Z"/><path class="cls-19" d="M334,1338v10a1.46,1.46,0,0,0,1.93,1.48l56.14-15a2.76,2.76,0,0,0,1.93-2.52v-10Z"/><path class="cls-19" d="M442,1268v-32a18,18,0,0,0-18-18h-6v12h6a6,6,0,0,1,6,6v32c0,8.42,0,29.58,9.75,40h0c-9.74,10.42-9.75,31.58-9.75,40v32a6,6,0,0,1-6,6h-6v12h6a18,18,0,0,0,18-18v-32c0-22.56,4-34,12-34v-12C446,1302,442,1290.56,442,1268Z"/><path class="cls-19" d="M286,1268v-32a18,18,0,0,1,18-18h6v12h-6a6,6,0,0,0-6,6v32c0,8.42,0,29.58-9.75,40h0c9.74,10.42,9.75,31.58,9.75,40v32a6,6,0,0,0,6,6h6v12h-6a18,18,0,0,1-18-18v-32c0-22.56-4-34-12-34v-12C282,1302,286,1290.56,286,1268Z"/><path class="cls-19" d="M406,1288.48a42,42,0,1,0-72,29.39h0V1334l12-3.22v-18.28a30,30,0,1,1,36,0v8.63l12-3.21h0A41.86,41.86,0,0,0,406,1288.48Z"/></g></svg>